<svg width="464" height="80" viewBox="0 0 464 80" fill="none" xmlns="http://www.w3.org/2000/svg">
<rect width="464" height="80" fill="white"/>
<rect width="464" height="80" fill="#7DBDCE"/>
<g clip-path="url(#clip0)">
<path d="M370.553 38.0754L365.554 31.0919C365.132 30.5018 364.908 29.8206 364.908 29.1248L364.915 23.9122L358.506 23.9065L358.499 29.115C358.498 29.8116 358.272 30.4945 357.849 31.0845L352.831 38.0591C352.561 38.4351 352.425 38.8644 352.425 39.2937C352.425 39.6786 352.534 40.0652 352.754 40.4144C353.221 41.1541 354.11 41.6131 355.075 41.614L368.302 41.6262H368.302C368.338 41.6262 368.356 41.6245 368.357 41.6245L368.356 41.6229C369.3 41.6066 370.165 41.1549 370.625 40.4314V40.4306C370.847 40.0807 370.957 39.6929 370.957 39.3063C370.957 38.8786 370.822 38.4506 370.553 38.0754ZM369.271 39.7751C369.077 40.0823 368.706 40.2735 368.305 40.2727C368.301 40.2727 368.3 40.2735 368.297 40.2735L355.076 40.2609C354.674 40.2605 354.303 40.0689 354.11 39.7608C354.017 39.6143 353.972 39.4548 353.972 39.2937C353.972 39.1142 354.028 38.9364 354.141 38.7793L359.157 31.8051C359.737 30.9994 360.044 30.068 360.046 29.1158L360.051 25.2607L363.366 25.264L363.361 29.1199V29.1215V29.1248C363.361 30.0745 363.667 31.0043 364.242 31.8097L369.241 38.7932C369.354 38.9494 369.41 39.1277 369.41 39.3063C369.41 39.4679 369.364 39.6282 369.271 39.7751Z" fill="white"/>
<path d="M364.368 33.9878C364.311 33.9077 364.211 33.8592 364.103 33.8592L359.293 33.8547C359.185 33.8547 359.085 33.9027 359.028 33.9829L355.577 38.7785C355.517 38.8631 355.513 38.9697 355.568 39.0572C355.623 39.1447 355.728 39.1984 355.842 39.1984L367.54 39.2094C367.654 39.2098 367.759 39.1561 367.815 39.0686C367.869 38.9812 367.866 38.8749 367.805 38.7907L364.368 33.9878Z" fill="white"/>
</g>
<path d="M313.52 38.1642H320.065V41.0565H309.76V25.4593H313.52V38.1642Z" fill="white"/>
<path d="M328.014 41.0565C327.885 40.8208 327.771 40.4745 327.671 40.0174C327.007 40.853 326.078 41.2708 324.886 41.2708C323.793 41.2708 322.865 40.9422 322.1 40.2852C321.336 39.6211 320.954 38.7891 320.954 37.7892C320.954 36.5323 321.418 35.5825 322.347 34.9397C323.275 34.297 324.625 33.9756 326.396 33.9756H327.51V33.365C327.51 32.3009 327.05 31.7689 326.128 31.7689C325.271 31.7689 324.843 32.1902 324.843 33.0329H321.233C321.233 31.9117 321.708 31.0012 322.657 30.3013C323.614 29.6014 324.832 29.2515 326.31 29.2515C327.789 29.2515 328.956 29.6121 329.813 30.3334C330.67 31.0547 331.11 32.0438 331.131 33.3007V38.432C331.145 39.4961 331.31 40.3102 331.624 40.8744V41.0565H328.014ZM325.753 38.6998C326.203 38.6998 326.575 38.6034 326.867 38.4106C327.167 38.2177 327.382 37.9999 327.51 37.7571V35.9039H326.46C325.203 35.9039 324.575 36.468 324.575 37.5964C324.575 37.9249 324.686 38.1927 324.907 38.3998C325.128 38.5998 325.411 38.6998 325.753 38.6998Z" fill="white"/>
<path d="M343.9 35.3575C343.9 37.2572 343.507 38.7176 342.722 39.7389C341.936 40.7601 340.829 41.2708 339.401 41.2708C338.223 41.2708 337.273 40.803 336.551 39.8674L336.401 41.0565H333.166V24.6023H336.776V30.3977C337.448 29.6335 338.315 29.2515 339.379 29.2515C340.822 29.2515 341.936 29.7692 342.722 30.8048C343.507 31.8403 343.9 33.2972 343.9 35.1754V35.3575ZM340.279 35.1326C340.279 34.0185 340.129 33.2258 339.829 32.7544C339.537 32.2759 339.083 32.0367 338.469 32.0367C337.655 32.0367 337.091 32.3473 336.776 32.9687V37.575C337.083 38.1892 337.655 38.4963 338.49 38.4963C339.34 38.4963 339.879 38.082 340.108 37.2536C340.222 36.8465 340.279 36.1395 340.279 35.1326Z" fill="white"/>
<path fill-rule="evenodd" clip-rule="evenodd" d="M375.624 20.0894H294.342C293.188 20.0894 292.253 21.0249 292.253 22.1789V44.9648C292.253 46.1188 293.188 47.0542 294.342 47.0542H375.624C376.778 47.0542 377.714 46.1188 377.714 44.9648V22.1788C377.714 21.0249 376.778 20.0894 375.624 20.0894ZM294.342 18C292.034 18 290.163 19.8709 290.163 22.1789V44.9648C290.163 47.2727 292.034 49.1437 294.342 49.1437H375.624C377.932 49.1437 379.803 47.2727 379.803 44.9648V22.1788C379.803 19.8709 377.932 18 375.624 18H294.342Z" fill="white"/>
<path d="M85.2129 60.0292C85.5159 60.0292 85.7806 59.9374 86.0071 59.7538C86.2336 59.5701 86.3591 59.3406 86.3836 59.0651H87.187C87.1717 59.3498 87.0738 59.6206 86.8932 59.8777C86.7126 60.1348 86.4708 60.3399 86.1678 60.4929C85.8679 60.646 85.5495 60.7225 85.2129 60.7225C84.5365 60.7225 83.9978 60.4975 83.5968 60.0476C83.1989 59.5946 83 58.9764 83 58.1928V58.0505C83 57.5669 83.0888 57.1369 83.2663 56.7604C83.4438 56.384 83.6978 56.0917 84.0284 55.8835C84.362 55.6754 84.7553 55.5714 85.2083 55.5714C85.7653 55.5714 86.2275 55.7382 86.5948 56.0718C86.9651 56.4054 87.1625 56.8385 87.187 57.371H86.3836C86.3591 57.0497 86.2367 56.7865 86.0163 56.5814C85.799 56.3733 85.5297 56.2692 85.2083 56.2692C84.7767 56.2692 84.4416 56.4253 84.2028 56.7375C83.9672 57.0466 83.8493 57.495 83.8493 58.0826V58.2433C83.8493 58.8157 83.9672 59.2564 84.2028 59.5655C84.4385 59.8747 84.7752 60.0292 85.2129 60.0292Z" fill="white"/>
<path d="M90.6183 56.4253C90.4897 56.4039 90.3505 56.3932 90.2005 56.3932C89.6434 56.3932 89.2654 56.6304 89.0665 57.1048V60.6307H88.2172V55.6632H89.0435L89.0573 56.2371C89.3358 55.7933 89.7307 55.5714 90.2418 55.5714C90.4071 55.5714 90.5326 55.5928 90.6183 55.6356V56.4253Z" fill="white"/>
<path d="M93.4481 60.7225C92.7747 60.7225 92.2269 60.5021 91.8045 60.0614C91.3821 59.6176 91.171 59.0253 91.171 58.2847V58.1286C91.171 57.6358 91.2643 57.1966 91.451 56.8109C91.6408 56.4222 91.904 56.1192 92.2407 55.9019C92.5804 55.6815 92.9477 55.5714 93.3425 55.5714C93.9883 55.5714 94.4903 55.7841 94.8484 56.2095C95.2065 56.6349 95.3855 57.244 95.3855 58.0367V58.3902H92.0203C92.0325 58.88 92.1749 59.2763 92.4473 59.5793C92.7227 59.8793 93.0716 60.0292 93.494 60.0292C93.794 60.0292 94.048 59.968 94.2561 59.8456C94.4642 59.7232 94.6464 59.561 94.8024 59.359L95.3212 59.763C94.905 60.4026 94.2806 60.7225 93.4481 60.7225ZM93.3425 56.2692C92.9997 56.2692 92.712 56.3947 92.4794 56.6457C92.2468 56.8936 92.1029 57.2425 92.0478 57.6924H94.5362V57.6281C94.5117 57.1966 94.3954 56.863 94.1873 56.6273C93.9791 56.3886 93.6975 56.2692 93.3425 56.2692Z" fill="white"/>
<path d="M99.5146 60.6307C99.4656 60.5327 99.4258 60.3583 99.3952 60.1073C99.0004 60.5174 98.5291 60.7225 97.9812 60.7225C97.4915 60.7225 97.089 60.5848 96.7738 60.3093C96.4616 60.0308 96.3055 59.6788 96.3055 59.2534C96.3055 58.7361 96.5014 58.3352 96.8931 58.0505C97.288 57.7628 97.8419 57.619 98.5551 57.619H99.3815V57.2287C99.3815 56.9318 99.2927 56.6962 99.1152 56.5217C98.9377 56.3442 98.676 56.2554 98.3301 56.2554C98.0271 56.2554 97.7731 56.3319 97.568 56.485C97.3629 56.638 97.2604 56.8232 97.2604 57.0405H96.4065C96.4065 56.7926 96.4937 56.5538 96.6682 56.3243C96.8457 56.0917 97.0844 55.908 97.3844 55.7734C97.6874 55.6387 98.0195 55.5714 98.3806 55.5714C98.953 55.5714 99.4014 55.7152 99.7258 56.0029C100.05 56.2876 100.219 56.6809 100.231 57.1828V59.4691C100.231 59.9252 100.289 60.2879 100.405 60.5572V60.6307H99.5146ZM98.1052 59.9833C98.3714 59.9833 98.6239 59.9145 98.8627 59.7767C99.1014 59.639 99.2743 59.46 99.3815 59.2396V58.2204H98.7158C97.6751 58.2204 97.1548 58.5249 97.1548 59.134C97.1548 59.4003 97.2436 59.6084 97.4211 59.7584C97.5986 59.9083 97.8266 59.9833 98.1052 59.9833Z" fill="white"/>
<path d="M102.79 54.4603V55.6632H103.717V56.3197H102.79V59.4003C102.79 59.5992 102.831 59.7492 102.914 59.8502C102.996 59.9481 103.137 59.9971 103.336 59.9971C103.434 59.9971 103.569 59.9787 103.74 59.942V60.6307C103.517 60.6919 103.299 60.7225 103.088 60.7225C102.709 60.7225 102.422 60.6077 102.23 60.3782C102.037 60.1486 101.94 59.8226 101.94 59.4003V56.3197H101.036V55.6632H101.94V54.4603H102.79Z" fill="white"/>
<path d="M106.85 60.7225C106.177 60.7225 105.629 60.5021 105.206 60.0614C104.784 59.6176 104.573 59.0253 104.573 58.2847V58.1286C104.573 57.6358 104.666 57.1966 104.853 56.8109C105.043 56.4222 105.306 56.1192 105.643 55.9019C105.982 55.6815 106.35 55.5714 106.744 55.5714C107.39 55.5714 107.892 55.7841 108.25 56.2095C108.608 56.6349 108.787 57.244 108.787 58.0367V58.3902H105.422C105.434 58.88 105.577 59.2763 105.849 59.5793C106.125 59.8793 106.474 60.0292 106.896 60.0292C107.196 60.0292 107.45 59.968 107.658 59.8456C107.866 59.7232 108.048 59.561 108.204 59.359L108.723 59.763C108.307 60.4026 107.682 60.7225 106.85 60.7225ZM106.744 56.2692C106.402 56.2692 106.114 56.3947 105.881 56.6457C105.649 56.8936 105.505 57.2425 105.45 57.6924H107.938V57.6281C107.914 57.1966 107.797 56.863 107.589 56.6273C107.381 56.3886 107.099 56.2692 106.744 56.2692Z" fill="white"/>
<path d="M113.409 54.4603V55.6632H114.337V56.3197H113.409V59.4003C113.409 59.5992 113.451 59.7492 113.533 59.8502C113.616 59.9481 113.757 59.9971 113.956 59.9971C114.054 59.9971 114.188 59.9787 114.36 59.942V60.6307C114.136 60.6919 113.919 60.7225 113.708 60.7225C113.328 60.7225 113.042 60.6077 112.849 60.3782C112.657 60.1486 112.56 59.8226 112.56 59.4003V56.3197H111.656V55.6632H112.56V54.4603H113.409Z" fill="white"/>
<path d="M116.258 56.2646C116.634 55.8024 117.124 55.5714 117.727 55.5714C118.777 55.5714 119.306 56.1636 119.315 57.3481V60.6307H118.466V57.3435C118.463 56.9854 118.38 56.7206 118.218 56.5492C118.059 56.3778 117.809 56.2922 117.47 56.2922C117.194 56.2922 116.952 56.3656 116.744 56.5125C116.536 56.6594 116.374 56.8523 116.258 57.091V60.6307H115.408V53.5789H116.258V56.2646Z" fill="white"/>
<path d="M122.724 60.7225C122.05 60.7225 121.502 60.5021 121.08 60.0614C120.658 59.6176 120.446 59.0253 120.446 58.2847V58.1286C120.446 57.6358 120.54 57.1966 120.727 56.8109C120.916 56.4222 121.179 56.1192 121.516 55.9019C121.856 55.6815 122.223 55.5714 122.618 55.5714C123.264 55.5714 123.766 55.7841 124.124 56.2095C124.482 56.6349 124.661 57.244 124.661 58.0367V58.3902H121.296C121.308 58.88 121.45 59.2763 121.723 59.5793C121.998 59.8793 122.347 60.0292 122.77 60.0292C123.069 60.0292 123.323 59.968 123.532 59.8456C123.74 59.7232 123.922 59.561 124.078 59.359L124.597 59.763C124.18 60.4026 123.556 60.7225 122.724 60.7225ZM122.618 56.2692C122.275 56.2692 121.988 56.3947 121.755 56.6457C121.522 56.8936 121.378 57.2425 121.323 57.6924H123.812V57.6281C123.787 57.1966 123.671 56.863 123.463 56.6273C123.255 56.3886 122.973 56.2692 122.618 56.2692Z" fill="white"/>
<path d="M129.054 60.6307H128.204V53.5789H129.054V60.6307Z" fill="white"/>
<path d="M132.554 60.7225C131.88 60.7225 131.332 60.5021 130.91 60.0614C130.488 59.6176 130.277 59.0253 130.277 58.2847V58.1286C130.277 57.6358 130.37 57.1966 130.557 56.8109C130.746 56.4222 131.01 56.1192 131.346 55.9019C131.686 55.6815 132.053 55.5714 132.448 55.5714C133.094 55.5714 133.596 55.7841 133.954 56.2095C134.312 56.6349 134.491 57.244 134.491 58.0367V58.3902H131.126C131.138 58.88 131.28 59.2763 131.553 59.5793C131.828 59.8793 132.177 60.0292 132.6 60.0292C132.9 60.0292 133.154 59.968 133.362 59.8456C133.57 59.7232 133.752 59.561 133.908 59.359L134.427 59.763C134.011 60.4026 133.386 60.7225 132.554 60.7225ZM132.448 56.2692C132.105 56.2692 131.818 56.3947 131.585 56.6457C131.352 56.8936 131.209 57.2425 131.153 57.6924H133.642V57.6281C133.617 57.1966 133.501 56.863 133.293 56.6273C133.085 56.3886 132.803 56.2692 132.448 56.2692Z" fill="white"/>
<path d="M138.62 60.6307C138.571 60.5327 138.531 60.3583 138.501 60.1073C138.106 60.5174 137.635 60.7225 137.087 60.7225C136.597 60.7225 136.195 60.5848 135.879 60.3093C135.567 60.0308 135.411 59.6788 135.411 59.2534C135.411 58.7361 135.607 58.3352 135.999 58.0505C136.394 57.7628 136.948 57.619 137.661 57.619H138.487V57.2287C138.487 56.9318 138.398 56.6962 138.221 56.5217C138.043 56.3442 137.782 56.2554 137.436 56.2554C137.133 56.2554 136.879 56.3319 136.674 56.485C136.469 56.638 136.366 56.8232 136.366 57.0405H135.512C135.512 56.7926 135.599 56.5538 135.774 56.3243C135.951 56.0917 136.19 55.908 136.49 55.7734C136.793 55.6387 137.125 55.5714 137.486 55.5714C138.059 55.5714 138.507 55.7152 138.831 56.0029C139.156 56.2876 139.324 56.6809 139.336 57.1828V59.4691C139.336 59.9252 139.395 60.2879 139.511 60.5572V60.6307H138.62ZM137.211 59.9833C137.477 59.9833 137.73 59.9145 137.968 59.7767C138.207 59.639 138.38 59.46 138.487 59.2396V58.2204H137.821C136.781 58.2204 136.26 58.5249 136.26 59.134C136.26 59.4003 136.349 59.6084 136.527 59.7584C136.704 59.9083 136.932 59.9833 137.211 59.9833Z" fill="white"/>
<path d="M143.144 56.4253C143.016 56.4039 142.876 56.3932 142.726 56.3932C142.169 56.3932 141.791 56.6304 141.592 57.1048V60.6307H140.743V55.6632H141.569L141.583 56.2371C141.862 55.7933 142.256 55.5714 142.768 55.5714C142.933 55.5714 143.058 55.5928 143.144 55.6356V56.4253Z" fill="white"/>
<path d="M144.808 55.6632L144.835 56.2876C145.215 55.8101 145.711 55.5714 146.323 55.5714C147.373 55.5714 147.902 56.1636 147.911 57.3481V60.6307H147.062V57.3435C147.059 56.9854 146.976 56.7206 146.814 56.5492C146.655 56.3778 146.405 56.2922 146.066 56.2922C145.79 56.2922 145.548 56.3656 145.34 56.5125C145.132 56.6594 144.97 56.8523 144.854 57.091V60.6307H144.004V55.6632H144.808Z" fill="white"/>
<path d="M150.19 60.6307H149.341V55.6632H150.19V60.6307ZM149.272 54.3456C149.272 54.2078 149.313 54.0915 149.396 53.9966C149.482 53.9018 149.607 53.8543 149.772 53.8543C149.938 53.8543 150.063 53.9018 150.149 53.9966C150.235 54.0915 150.277 54.2078 150.277 54.3456C150.277 54.4833 150.235 54.5981 150.149 54.6899C150.063 54.7817 149.938 54.8276 149.772 54.8276C149.607 54.8276 149.482 54.7817 149.396 54.6899C149.313 54.5981 149.272 54.4833 149.272 54.3456Z" fill="white"/>
<path d="M152.432 55.6632L152.46 56.2876C152.839 55.8101 153.335 55.5714 153.947 55.5714C154.997 55.5714 155.527 56.1636 155.536 57.3481V60.6307H154.687V57.3435C154.684 56.9854 154.601 56.7206 154.439 56.5492C154.28 56.3778 154.03 56.2922 153.69 56.2922C153.415 56.2922 153.173 56.3656 152.965 56.5125C152.757 56.6594 152.595 56.8523 152.478 57.091V60.6307H151.629V55.6632H152.432Z" fill="white"/>
<path d="M156.69 58.1056C156.69 57.3313 156.869 56.7161 157.227 56.26C157.585 55.8009 158.06 55.5714 158.65 55.5714C159.256 55.5714 159.729 55.7856 160.069 56.2141L160.11 55.6632H160.886V60.5113C160.886 61.154 160.695 61.6606 160.312 62.0309C159.933 62.4013 159.422 62.5864 158.779 62.5864C158.421 62.5864 158.07 62.5099 157.728 62.3569C157.385 62.2039 157.123 61.9942 156.943 61.7279L157.383 61.2183C157.748 61.6682 158.193 61.8932 158.719 61.8932C159.132 61.8932 159.454 61.7769 159.683 61.5443C159.916 61.3117 160.032 60.9842 160.032 60.5618V60.1348C159.693 60.5266 159.229 60.7225 158.641 60.7225C158.06 60.7225 157.588 60.4883 157.227 60.0201C156.869 59.5518 156.69 58.9136 156.69 58.1056ZM157.544 58.202C157.544 58.7621 157.659 59.2029 157.888 59.5242C158.118 59.8425 158.439 60.0017 158.852 60.0017C159.388 60.0017 159.781 59.7584 160.032 59.2717V57.0038C159.772 56.5294 159.382 56.2922 158.862 56.2922C158.448 56.2922 158.126 56.4528 157.893 56.7742C157.66 57.0956 157.544 57.5715 157.544 58.202Z" fill="white"/>
<path d="M165.577 60.6307H164.728V55.6632H165.577V60.6307ZM164.659 54.3456C164.659 54.2078 164.7 54.0915 164.783 53.9966C164.869 53.9018 164.994 53.8543 165.159 53.8543C165.325 53.8543 165.45 53.9018 165.536 53.9966C165.622 54.0915 165.664 54.2078 165.664 54.3456C165.664 54.4833 165.622 54.5981 165.536 54.6899C165.45 54.7817 165.325 54.8276 165.159 54.8276C164.994 54.8276 164.869 54.7817 164.783 54.6899C164.7 54.5981 164.659 54.4833 164.659 54.3456Z" fill="white"/>
<path d="M167.819 55.6632L167.847 56.2876C168.226 55.8101 168.722 55.5714 169.334 55.5714C170.384 55.5714 170.914 56.1636 170.923 57.3481V60.6307H170.074V57.3435C170.071 56.9854 169.988 56.7206 169.826 56.5492C169.667 56.3778 169.417 56.2922 169.077 56.2922C168.802 56.2922 168.56 56.3656 168.352 56.5125C168.144 56.6594 167.982 56.8523 167.865 57.091V60.6307H167.016V55.6632H167.819Z" fill="white"/>
<path d="M173.082 55.6632L173.11 56.2876C173.49 55.8101 173.985 55.5714 174.598 55.5714C175.647 55.5714 176.177 56.1636 176.186 57.3481V60.6307H175.337V57.3435C175.334 56.9854 175.251 56.7206 175.089 56.5492C174.93 56.3778 174.68 56.2922 174.34 56.2922C174.065 56.2922 173.823 56.3656 173.615 56.5125C173.407 56.6594 173.245 56.8523 173.128 57.091V60.6307H172.279V55.6632H173.082Z" fill="white"/>
<path d="M177.317 58.101C177.317 57.6144 177.412 57.1767 177.602 56.788C177.795 56.3993 178.061 56.0993 178.401 55.8881C178.743 55.677 179.134 55.5714 179.571 55.5714C180.248 55.5714 180.794 55.8055 181.21 56.2738C181.63 56.7421 181.839 57.3649 181.839 58.1423V58.202C181.839 58.6856 181.746 59.1202 181.559 59.5059C181.376 59.8885 181.111 60.1869 180.765 60.4011C180.422 60.6154 180.027 60.7225 179.581 60.7225C178.907 60.7225 178.361 60.4883 177.942 60.0201C177.525 59.5518 177.317 58.932 177.317 58.1607V58.101ZM178.171 58.202C178.171 58.7529 178.298 59.1952 178.552 59.5288C178.809 59.8624 179.152 60.0292 179.581 60.0292C180.012 60.0292 180.355 59.8609 180.609 59.5242C180.863 59.1845 180.99 58.7101 180.99 58.101C180.99 57.5562 180.86 57.1155 180.6 56.7788C180.343 56.4391 180 56.2692 179.571 56.2692C179.152 56.2692 178.814 56.436 178.557 56.7696C178.3 57.1032 178.171 57.5807 178.171 58.202Z" fill="white"/>
<path d="M184.545 59.4783L185.776 55.6632H186.643L184.862 60.6307H184.215L182.415 55.6632H183.283L184.545 59.4783Z" fill="white"/>
<path d="M190.529 60.6307C190.48 60.5327 190.44 60.3583 190.41 60.1073C190.015 60.5174 189.544 60.7225 188.996 60.7225C188.506 60.7225 188.103 60.5848 187.788 60.3093C187.476 60.0308 187.32 59.6788 187.32 59.2534C187.32 58.7361 187.516 58.3352 187.908 58.0505C188.302 57.7628 188.856 57.619 189.57 57.619H190.396V57.2287C190.396 56.9318 190.307 56.6962 190.13 56.5217C189.952 56.3442 189.69 56.2554 189.345 56.2554C189.042 56.2554 188.788 56.3319 188.582 56.485C188.377 56.638 188.275 56.8232 188.275 57.0405H187.421C187.421 56.7926 187.508 56.5538 187.683 56.3243C187.86 56.0917 188.099 55.908 188.399 55.7734C188.702 55.6387 189.034 55.5714 189.395 55.5714C189.967 55.5714 190.416 55.7152 190.74 56.0029C191.065 56.2876 191.233 56.6809 191.245 57.1828V59.4691C191.245 59.9252 191.303 60.2879 191.42 60.5572V60.6307H190.529ZM189.12 59.9833C189.386 59.9833 189.638 59.9145 189.877 59.7767C190.116 59.639 190.289 59.46 190.396 59.2396V58.2204H189.73C188.69 58.2204 188.169 58.5249 188.169 59.134C188.169 59.4003 188.258 59.6084 188.436 59.7584C188.613 59.9083 188.841 59.9833 189.12 59.9833Z" fill="white"/>
<path d="M193.804 54.4603V55.6632H194.732V56.3197H193.804V59.4003C193.804 59.5992 193.846 59.7492 193.928 59.8502C194.011 59.9481 194.152 59.9971 194.351 59.9971C194.448 59.9971 194.583 59.9787 194.755 59.942V60.6307C194.531 60.6919 194.314 60.7225 194.103 60.7225C193.723 60.7225 193.437 60.6077 193.244 60.3782C193.051 60.1486 192.955 59.8226 192.955 59.4003V56.3197H192.05V55.6632H192.955V54.4603H193.804Z" fill="white"/>
<path d="M196.726 60.6307H195.877V55.6632H196.726V60.6307ZM195.808 54.3456C195.808 54.2078 195.849 54.0915 195.932 53.9966C196.017 53.9018 196.143 53.8543 196.308 53.8543C196.473 53.8543 196.599 53.9018 196.685 53.9966C196.77 54.0915 196.813 54.2078 196.813 54.3456C196.813 54.4833 196.77 54.5981 196.685 54.6899C196.599 54.7817 196.473 54.8276 196.308 54.8276C196.143 54.8276 196.017 54.7817 195.932 54.6899C195.849 54.5981 195.808 54.4833 195.808 54.3456Z" fill="white"/>
<path d="M197.94 58.101C197.94 57.6144 198.035 57.1767 198.224 56.788C198.417 56.3993 198.683 56.0993 199.023 55.8881C199.366 55.677 199.756 55.5714 200.194 55.5714C200.87 55.5714 201.417 55.8055 201.833 56.2738C202.252 56.7421 202.462 57.3649 202.462 58.1423V58.202C202.462 58.6856 202.368 59.1202 202.182 59.5059C201.998 59.8885 201.733 60.1869 201.388 60.4011C201.045 60.6154 200.65 60.7225 200.203 60.7225C199.53 60.7225 198.983 60.4883 198.564 60.0201C198.148 59.5518 197.94 58.932 197.94 58.1607V58.101ZM198.794 58.202C198.794 58.7529 198.921 59.1952 199.175 59.5288C199.432 59.8624 199.775 60.0292 200.203 60.0292C200.635 60.0292 200.977 59.8609 201.231 59.5242C201.485 59.1845 201.612 58.7101 201.612 58.101C201.612 57.5562 201.482 57.1155 201.222 56.7788C200.965 56.4391 200.622 56.2692 200.194 56.2692C199.775 56.2692 199.436 56.436 199.179 56.7696C198.922 57.1032 198.794 57.5807 198.794 58.202Z" fill="white"/>
<path d="M204.406 55.6632L204.433 56.2876C204.813 55.8101 205.308 55.5714 205.921 55.5714C206.97 55.5714 207.5 56.1636 207.509 57.3481V60.6307H206.66V57.3435C206.657 56.9854 206.574 56.7206 206.412 56.5492C206.253 56.3778 206.003 56.2922 205.664 56.2922C205.388 56.2922 205.146 56.3656 204.938 56.5125C204.73 56.6594 204.568 56.8523 204.451 57.091V60.6307H203.602V55.6632H204.406Z" fill="white"/>
<path d="M215.671 59.46L216.626 55.6632H217.475L216.029 60.6307H215.34L214.133 56.866L212.958 60.6307H212.269L210.827 55.6632H211.672L212.65 59.3819L213.807 55.6632H214.491L215.671 59.46Z" fill="white"/>
<path d="M219.341 60.6307H218.492V55.6632H219.341V60.6307ZM218.423 54.3456C218.423 54.2078 218.464 54.0915 218.547 53.9966C218.632 53.9018 218.758 53.8543 218.923 53.8543C219.088 53.8543 219.214 53.9018 219.3 53.9966C219.385 54.0915 219.428 54.2078 219.428 54.3456C219.428 54.4833 219.385 54.5981 219.3 54.6899C219.214 54.7817 219.088 54.8276 218.923 54.8276C218.758 54.8276 218.632 54.7817 218.547 54.6899C218.464 54.5981 218.423 54.4833 218.423 54.3456Z" fill="white"/>
<path d="M221.932 54.4603V55.6632H222.859V56.3197H221.932V59.4003C221.932 59.5992 221.973 59.7492 222.056 59.8502C222.139 59.9481 222.279 59.9971 222.478 59.9971C222.576 59.9971 222.711 59.9787 222.882 59.942V60.6307C222.659 60.6919 222.442 60.7225 222.23 60.7225C221.851 60.7225 221.565 60.6077 221.372 60.3782C221.179 60.1486 221.083 59.8226 221.083 59.4003V56.3197H220.178V55.6632H221.083V54.4603H221.932Z" fill="white"/>
<path d="M224.78 56.2646C225.157 55.8024 225.646 55.5714 226.249 55.5714C227.299 55.5714 227.829 56.1636 227.838 57.3481V60.6307H226.988V57.3435C226.985 56.9854 226.903 56.7206 226.741 56.5492C226.581 56.3778 226.332 56.2922 225.992 56.2922C225.717 56.2922 225.475 56.3656 225.267 56.5125C225.059 56.6594 224.896 56.8523 224.78 57.091V60.6307H223.931V53.5789H224.78V56.2646Z" fill="white"/>
<path d="M232.744 54.4603V55.6632H233.672V56.3197H232.744V59.4003C232.744 59.5992 232.786 59.7492 232.868 59.8502C232.951 59.9481 233.092 59.9971 233.291 59.9971C233.389 59.9971 233.523 59.9787 233.695 59.942V60.6307C233.471 60.6919 233.254 60.7225 233.043 60.7225C232.663 60.7225 232.377 60.6077 232.184 60.3782C231.992 60.1486 231.895 59.8226 231.895 59.4003V56.3197H230.991V55.6632H231.895V54.4603H232.744Z" fill="white"/>
<path d="M236.805 60.7225C236.131 60.7225 235.584 60.5021 235.161 60.0614C234.739 59.6176 234.528 59.0253 234.528 58.2847V58.1286C234.528 57.6358 234.621 57.1966 234.808 56.8109C234.997 56.4222 235.261 56.1192 235.597 55.9019C235.937 55.6815 236.304 55.5714 236.699 55.5714C237.345 55.5714 237.847 55.7841 238.205 56.2095C238.563 56.6349 238.742 57.244 238.742 58.0367V58.3902H235.377C235.389 58.88 235.531 59.2763 235.804 59.5793C236.079 59.8793 236.428 60.0292 236.851 60.0292C237.151 60.0292 237.405 59.968 237.613 59.8456C237.821 59.7232 238.003 59.561 238.159 59.359L238.678 59.763C238.262 60.4026 237.637 60.7225 236.805 60.7225ZM236.699 56.2692C236.356 56.2692 236.069 56.3947 235.836 56.6457C235.603 56.8936 235.46 57.2425 235.404 57.6924H237.893V57.6281C237.868 57.1966 237.752 56.863 237.544 56.6273C237.336 56.3886 237.054 56.2692 236.699 56.2692Z" fill="white"/>
<path d="M241.797 60.0292C242.1 60.0292 242.365 59.9374 242.591 59.7538C242.818 59.5701 242.943 59.3406 242.968 59.0651H243.771C243.756 59.3498 243.658 59.6206 243.477 59.8777C243.297 60.1348 243.055 60.3399 242.752 60.4929C242.452 60.646 242.134 60.7225 241.797 60.7225C241.121 60.7225 240.582 60.4975 240.181 60.0476C239.783 59.5946 239.584 58.9764 239.584 58.1928V58.0505C239.584 57.5669 239.673 57.1369 239.85 56.7604C240.028 56.384 240.282 56.0917 240.612 55.8835C240.946 55.6754 241.339 55.5714 241.792 55.5714C242.349 55.5714 242.812 55.7382 243.179 56.0718C243.549 56.4054 243.747 56.8385 243.771 57.371H242.968C242.943 57.0497 242.821 56.7865 242.6 56.5814C242.383 56.3733 242.114 56.2692 241.792 56.2692C241.361 56.2692 241.026 56.4253 240.787 56.7375C240.551 57.0466 240.433 57.495 240.433 58.0826V58.2433C240.433 58.8157 240.551 59.2564 240.787 59.5655C241.023 59.8747 241.359 60.0292 241.797 60.0292Z" fill="white"/>
<path d="M245.651 56.2646C246.027 55.8024 246.517 55.5714 247.12 55.5714C248.169 55.5714 248.699 56.1636 248.708 57.3481V60.6307H247.859V57.3435C247.856 56.9854 247.773 56.7206 247.611 56.5492C247.452 56.3778 247.202 56.2922 246.863 56.2922C246.587 56.2922 246.345 56.3656 246.137 56.5125C245.929 56.6594 245.767 56.8523 245.651 57.091V60.6307H244.801V53.5789H245.651V56.2646Z" fill="white"/>
<path d="M255.529 60.6307C255.48 60.5327 255.441 60.3583 255.41 60.1073C255.015 60.5174 254.544 60.7225 253.996 60.7225C253.506 60.7225 253.104 60.5848 252.789 60.3093C252.476 60.0308 252.32 59.6788 252.32 59.2534C252.32 58.7361 252.516 58.3352 252.908 58.0505C253.303 57.7628 253.857 57.619 254.57 57.619H255.396V57.2287C255.396 56.9318 255.307 56.6962 255.13 56.5217C254.952 56.3442 254.691 56.2554 254.345 56.2554C254.042 56.2554 253.788 56.3319 253.583 56.485C253.378 56.638 253.275 56.8232 253.275 57.0405H252.421C252.421 56.7926 252.508 56.5538 252.683 56.3243C252.86 56.0917 253.099 55.908 253.399 55.7734C253.702 55.6387 254.034 55.5714 254.395 55.5714C254.968 55.5714 255.416 55.7152 255.741 56.0029C256.065 56.2876 256.233 56.6809 256.246 57.1828V59.4691C256.246 59.9252 256.304 60.2879 256.42 60.5572V60.6307H255.529ZM254.12 59.9833C254.386 59.9833 254.639 59.9145 254.877 59.7767C255.116 59.639 255.289 59.46 255.396 59.2396V58.2204H254.731C253.69 58.2204 253.17 58.5249 253.17 59.134C253.17 59.4003 253.258 59.6084 253.436 59.7584C253.613 59.9083 253.841 59.9833 254.12 59.9833Z" fill="white"/>
<path d="M258.456 55.6632L258.483 56.2876C258.863 55.8101 259.359 55.5714 259.971 55.5714C261.02 55.5714 261.55 56.1636 261.559 57.3481V60.6307H260.71V57.3435C260.707 56.9854 260.624 56.7206 260.462 56.5492C260.303 56.3778 260.053 56.2922 259.714 56.2922C259.438 56.2922 259.196 56.3656 258.988 56.5125C258.78 56.6594 258.618 56.8523 258.502 57.091V60.6307H257.652V55.6632H258.456Z" fill="white"/>
<path d="M262.709 58.1056C262.709 57.3435 262.889 56.7314 263.25 56.2692C263.612 55.804 264.084 55.5714 264.669 55.5714C265.251 55.5714 265.711 55.7703 266.051 56.1682V53.5789H266.9V60.6307H266.12L266.078 60.0981C265.739 60.5144 265.266 60.7225 264.66 60.7225C264.084 60.7225 263.615 60.4868 263.25 60.0155C262.889 59.5441 262.709 58.9289 262.709 58.1699V58.1056ZM263.558 58.202C263.558 58.7652 263.674 59.2059 263.907 59.5242C264.14 59.8425 264.461 60.0017 264.871 60.0017C265.41 60.0017 265.803 59.7599 266.051 59.2763V56.9946C265.797 56.5263 265.407 56.2922 264.88 56.2922C264.464 56.2922 264.14 56.4528 263.907 56.7742C263.674 57.0956 263.558 57.5715 263.558 58.202Z" fill="white"/>
<path d="M274.911 58.202C274.911 58.9611 274.736 59.5717 274.387 60.0338C274.038 60.4929 273.57 60.7225 272.982 60.7225C272.355 60.7225 271.87 60.5006 271.527 60.0568L271.486 60.6307H270.705V53.5789H271.554V56.2095C271.897 55.7841 272.37 55.5714 272.973 55.5714C273.576 55.5714 274.049 55.7994 274.392 56.2554C274.738 56.7115 274.911 57.3358 274.911 58.1286V58.202ZM274.061 58.1056C274.061 57.5271 273.949 57.0803 273.726 56.765C273.503 56.4498 273.181 56.2922 272.762 56.2922C272.202 56.2922 271.799 56.5523 271.554 57.0726V59.2212C271.815 59.7415 272.22 60.0017 272.771 60.0017C273.178 60.0017 273.495 59.8441 273.721 59.5288C273.948 59.2136 274.061 58.7392 274.061 58.1056Z" fill="white"/>
<path d="M278.121 60.7225C277.448 60.7225 276.9 60.5021 276.478 60.0614C276.055 59.6176 275.844 59.0253 275.844 58.2847V58.1286C275.844 57.6358 275.938 57.1966 276.124 56.8109C276.314 56.4222 276.577 56.1192 276.914 55.9019C277.254 55.6815 277.621 55.5714 278.016 55.5714C278.662 55.5714 279.164 55.7841 279.522 56.2095C279.88 56.6349 280.059 57.244 280.059 58.0367V58.3902H276.694C276.706 58.88 276.848 59.2763 277.121 59.5793C277.396 59.8793 277.745 60.0292 278.167 60.0292C278.467 60.0292 278.721 59.968 278.929 59.8456C279.138 59.7232 279.32 59.561 279.476 59.359L279.995 59.763C279.578 60.4026 278.954 60.7225 278.121 60.7225ZM278.016 56.2692C277.673 56.2692 277.385 56.3947 277.153 56.6457C276.92 56.8936 276.776 57.2425 276.721 57.6924H279.209V57.6281C279.185 57.1966 279.069 56.863 278.861 56.6273C278.652 56.3886 278.371 56.2692 278.016 56.2692Z" fill="white"/>
<path d="M286.595 60.6307C286.546 60.5327 286.507 60.3583 286.476 60.1073C286.081 60.5174 285.61 60.7225 285.062 60.7225C284.572 60.7225 284.17 60.5848 283.855 60.3093C283.542 60.0308 283.386 59.6788 283.386 59.2534C283.386 58.7361 283.582 58.3352 283.974 58.0505C284.369 57.7628 284.923 57.619 285.636 57.619H286.462V57.2287C286.462 56.9318 286.373 56.6962 286.196 56.5217C286.018 56.3442 285.757 56.2554 285.411 56.2554C285.108 56.2554 284.854 56.3319 284.649 56.485C284.444 56.638 284.341 56.8232 284.341 57.0405H283.487C283.487 56.7926 283.574 56.5538 283.749 56.3243C283.926 56.0917 284.165 55.908 284.465 55.7734C284.768 55.6387 285.1 55.5714 285.461 55.5714C286.034 55.5714 286.482 55.7152 286.807 56.0029C287.131 56.2876 287.299 56.6809 287.312 57.1828V59.4691C287.312 59.9252 287.37 60.2879 287.486 60.5572V60.6307H286.595ZM285.186 59.9833C285.452 59.9833 285.705 59.9145 285.943 59.7767C286.182 59.639 286.355 59.46 286.462 59.2396V58.2204H285.797C284.756 58.2204 284.236 58.5249 284.236 59.134C284.236 59.4003 284.324 59.6084 284.502 59.7584C284.679 59.9083 284.907 59.9833 285.186 59.9833Z" fill="white"/>
<path d="M289.522 55.6632L289.549 56.2876C289.929 55.8101 290.425 55.5714 291.037 55.5714C292.086 55.5714 292.616 56.1636 292.625 57.3481V60.6307H291.776V57.3435C291.773 56.9854 291.69 56.7206 291.528 56.5492C291.369 56.3778 291.119 56.2922 290.78 56.2922C290.504 56.2922 290.262 56.3656 290.054 56.5125C289.846 56.6594 289.684 56.8523 289.568 57.091V60.6307H288.718V55.6632H289.522Z" fill="white"/>
<path d="M297.312 60.6307H296.462V55.6632H297.312V60.6307ZM296.393 54.3456C296.393 54.2078 296.435 54.0915 296.517 53.9966C296.603 53.9018 296.728 53.8543 296.894 53.8543C297.059 53.8543 297.184 53.9018 297.27 53.9966C297.356 54.0915 297.399 54.2078 297.399 54.3456C297.399 54.4833 297.356 54.5981 297.27 54.6899C297.184 54.7817 297.059 54.8276 296.894 54.8276C296.728 54.8276 296.603 54.7817 296.517 54.6899C296.435 54.5981 296.393 54.4833 296.393 54.3456Z" fill="white"/>
<path d="M299.554 55.6632L299.581 56.2876C299.961 55.8101 300.457 55.5714 301.069 55.5714C302.119 55.5714 302.648 56.1636 302.657 57.3481V60.6307H301.808V57.3435C301.805 56.9854 301.722 56.7206 301.56 56.5492C301.401 56.3778 301.151 56.2922 300.812 56.2922C300.536 56.2922 300.294 56.3656 300.086 56.5125C299.878 56.6594 299.716 56.8523 299.6 57.091V60.6307H298.75V55.6632H299.554Z" fill="white"/>
<path d="M303.807 58.1056C303.807 57.3435 303.987 56.7314 304.348 56.2692C304.71 55.804 305.183 55.5714 305.767 55.5714C306.349 55.5714 306.809 55.7703 307.149 56.1682V53.5789H307.998V60.6307H307.218L307.177 60.0981C306.837 60.5144 306.364 60.7225 305.758 60.7225C305.183 60.7225 304.713 60.4868 304.348 60.0155C303.987 59.5441 303.807 58.9289 303.807 58.1699V58.1056ZM304.656 58.202C304.656 58.7652 304.772 59.2059 305.005 59.5242C305.238 59.8425 305.559 60.0017 305.969 60.0017C306.508 60.0017 306.901 59.7599 307.149 59.2763V56.9946C306.895 56.5263 306.505 56.2922 305.978 56.2922C305.562 56.2922 305.238 56.4528 305.005 56.7742C304.772 57.0956 304.656 57.5715 304.656 58.202Z" fill="white"/>
<path d="M311.457 60.7225C310.784 60.7225 310.236 60.5021 309.814 60.0614C309.391 59.6176 309.18 59.0253 309.18 58.2847V58.1286C309.18 57.6358 309.273 57.1966 309.46 56.8109C309.65 56.4222 309.913 56.1192 310.25 55.9019C310.589 55.6815 310.957 55.5714 311.352 55.5714C311.997 55.5714 312.499 55.7841 312.857 56.2095C313.216 56.6349 313.395 57.244 313.395 58.0367V58.3902H310.029C310.042 58.88 310.184 59.2763 310.456 59.5793C310.732 59.8793 311.081 60.0292 311.503 60.0292C311.803 60.0292 312.057 59.968 312.265 59.8456C312.473 59.7232 312.655 59.561 312.811 59.359L313.33 59.763C312.914 60.4026 312.29 60.7225 311.457 60.7225ZM311.352 56.2692C311.009 56.2692 310.721 56.3947 310.488 56.6457C310.256 56.8936 310.112 57.2425 310.057 57.6924H312.545V57.6281C312.521 57.1966 312.404 56.863 312.196 56.6273C311.988 56.3886 311.707 56.2692 311.352 56.2692Z" fill="white"/>
<path d="M318.653 58.202C318.653 58.958 318.48 59.5671 318.134 60.0292C317.788 60.4914 317.32 60.7225 316.729 60.7225C316.126 60.7225 315.652 60.5312 315.306 60.1486V62.5405H314.457V55.6632H315.233L315.274 56.2141C315.62 55.7856 316.1 55.5714 316.716 55.5714C317.312 55.5714 317.784 55.7963 318.13 56.2462C318.479 56.6962 318.653 57.3221 318.653 58.124V58.202ZM317.804 58.1056C317.804 57.5455 317.684 57.1032 317.446 56.7788C317.207 56.4544 316.879 56.2922 316.463 56.2922C315.949 56.2922 315.563 56.5202 315.306 56.9762V59.3498C315.56 59.8028 315.949 60.0292 316.472 60.0292C316.879 60.0292 317.202 59.8686 317.441 59.5472C317.683 59.2228 317.804 58.7422 317.804 58.1056Z" fill="white"/>
<path d="M321.873 60.7225C321.2 60.7225 320.652 60.5021 320.23 60.0614C319.807 59.6176 319.596 59.0253 319.596 58.2847V58.1286C319.596 57.6358 319.689 57.1966 319.876 56.8109C320.066 56.4222 320.329 56.1192 320.666 55.9019C321.005 55.6815 321.373 55.5714 321.768 55.5714C322.413 55.5714 322.915 55.7841 323.273 56.2095C323.631 56.6349 323.811 57.244 323.811 58.0367V58.3902H320.445C320.458 58.88 320.6 59.2763 320.872 59.5793C321.148 59.8793 321.497 60.0292 321.919 60.0292C322.219 60.0292 322.473 59.968 322.681 59.8456C322.889 59.7232 323.071 59.561 323.227 59.359L323.746 59.763C323.33 60.4026 322.706 60.7225 321.873 60.7225ZM321.768 56.2692C321.425 56.2692 321.137 56.3947 320.904 56.6457C320.672 56.8936 320.528 57.2425 320.473 57.6924H322.961V57.6281C322.937 57.1966 322.82 56.863 322.612 56.6273C322.404 56.3886 322.123 56.2692 321.768 56.2692Z" fill="white"/>
<path d="M325.676 55.6632L325.704 56.2876C326.083 55.8101 326.579 55.5714 327.191 55.5714C328.241 55.5714 328.771 56.1636 328.78 57.3481V60.6307H327.93V57.3435C327.927 56.9854 327.845 56.7206 327.683 56.5492C327.523 56.3778 327.274 56.2922 326.934 56.2922C326.659 56.2922 326.417 56.3656 326.209 56.5125C326.001 56.6594 325.838 56.8523 325.722 57.091V60.6307H324.873V55.6632H325.676Z" fill="white"/>
<path d="M329.929 58.1056C329.929 57.3435 330.11 56.7314 330.471 56.2692C330.832 55.804 331.305 55.5714 331.89 55.5714C332.471 55.5714 332.932 55.7703 333.272 56.1682V53.5789H334.121V60.6307H333.34L333.299 60.0981C332.959 60.5144 332.486 60.7225 331.88 60.7225C331.305 60.7225 330.835 60.4868 330.471 60.0155C330.11 59.5441 329.929 58.9289 329.929 58.1699V58.1056ZM330.779 58.202C330.779 58.7652 330.895 59.2059 331.128 59.5242C331.36 59.8425 331.682 60.0017 332.092 60.0017C332.63 60.0017 333.024 59.7599 333.272 59.2763V56.9946C333.017 56.5263 332.627 56.2922 332.101 56.2922C331.685 56.2922 331.36 56.4528 331.128 56.7742C330.895 57.0956 330.779 57.5715 330.779 58.202Z" fill="white"/>
<path d="M337.58 60.7225C336.906 60.7225 336.358 60.5021 335.936 60.0614C335.514 59.6176 335.303 59.0253 335.303 58.2847V58.1286C335.303 57.6358 335.396 57.1966 335.583 56.8109C335.772 56.4222 336.036 56.1192 336.372 55.9019C336.712 55.6815 337.079 55.5714 337.474 55.5714C338.12 55.5714 338.622 55.7841 338.98 56.2095C339.338 56.6349 339.517 57.244 339.517 58.0367V58.3902H336.152C336.164 58.88 336.306 59.2763 336.579 59.5793C336.854 59.8793 337.203 60.0292 337.626 60.0292C337.926 60.0292 338.18 59.968 338.388 59.8456C338.596 59.7232 338.778 59.561 338.934 59.359L339.453 59.763C339.037 60.4026 338.412 60.7225 337.58 60.7225ZM337.474 56.2692C337.131 56.2692 336.844 56.3947 336.611 56.6457C336.378 56.8936 336.235 57.2425 336.179 57.6924H338.668V57.6281C338.643 57.1966 338.527 56.863 338.319 56.6273C338.111 56.3886 337.829 56.2692 337.474 56.2692Z" fill="white"/>
<path d="M341.383 55.6632L341.41 56.2876C341.79 55.8101 342.286 55.5714 342.898 55.5714C343.948 55.5714 344.477 56.1636 344.486 57.3481V60.6307H343.637V57.3435C343.634 56.9854 343.551 56.7206 343.389 56.5492C343.23 56.3778 342.98 56.2922 342.641 56.2922C342.365 56.2922 342.124 56.3656 341.915 56.5125C341.707 56.6594 341.545 56.8523 341.429 57.091V60.6307H340.579V55.6632H341.383Z" fill="white"/>
<path d="M346.995 54.4603V55.6632H347.922V56.3197H346.995V59.4003C346.995 59.5992 347.036 59.7492 347.119 59.8502C347.201 59.9481 347.342 59.9971 347.541 59.9971C347.639 59.9971 347.774 59.9787 347.945 59.942V60.6307C347.722 60.6919 347.504 60.7225 347.293 60.7225C346.914 60.7225 346.628 60.6077 346.435 60.3782C346.242 60.1486 346.145 59.8226 346.145 59.4003V56.3197H345.241V55.6632H346.145V54.4603H346.995Z" fill="white"/>
<path d="M352.324 60.6307H351.475V53.5789H352.324V60.6307Z" fill="white"/>
<path d="M355.824 60.7225C355.151 60.7225 354.603 60.5021 354.18 60.0614C353.758 59.6176 353.547 59.0253 353.547 58.2847V58.1286C353.547 57.6358 353.64 57.1966 353.827 56.8109C354.017 56.4222 354.28 56.1192 354.617 55.9019C354.956 55.6815 355.324 55.5714 355.718 55.5714C356.364 55.5714 356.866 55.7841 357.224 56.2095C357.582 56.6349 357.761 57.244 357.761 58.0367V58.3902H354.396C354.408 58.88 354.551 59.2763 354.823 59.5793C355.099 59.8793 355.448 60.0292 355.87 60.0292C356.17 60.0292 356.424 59.968 356.632 59.8456C356.84 59.7232 357.022 59.561 357.178 59.359L357.697 59.763C357.281 60.4026 356.657 60.7225 355.824 60.7225ZM355.718 56.2692C355.376 56.2692 355.088 56.3947 354.855 56.6457C354.623 56.8936 354.479 57.2425 354.424 57.6924H356.912V57.6281C356.888 57.1966 356.771 56.863 356.563 56.6273C356.355 56.3886 356.074 56.2692 355.718 56.2692Z" fill="white"/>
<path d="M361.891 60.6307C361.842 60.5327 361.802 60.3583 361.771 60.1073C361.376 60.5174 360.905 60.7225 360.357 60.7225C359.867 60.7225 359.465 60.5848 359.15 60.3093C358.837 60.0308 358.681 59.6788 358.681 59.2534C358.681 58.7361 358.877 58.3352 359.269 58.0505C359.664 57.7628 360.218 57.619 360.931 57.619H361.757V57.2287C361.757 56.9318 361.669 56.6962 361.491 56.5217C361.314 56.3442 361.052 56.2554 360.706 56.2554C360.403 56.2554 360.149 56.3319 359.944 56.485C359.739 56.638 359.636 56.8232 359.636 57.0405H358.782C358.782 56.7926 358.87 56.5538 359.044 56.3243C359.222 56.0917 359.46 55.908 359.76 55.7734C360.063 55.6387 360.395 55.5714 360.757 55.5714C361.329 55.5714 361.777 55.7152 362.102 56.0029C362.426 56.2876 362.594 56.6809 362.607 57.1828V59.4691C362.607 59.9252 362.665 60.2879 362.781 60.5572V60.6307H361.891ZM360.481 59.9833C360.747 59.9833 361 59.9145 361.239 59.7767C361.477 59.639 361.65 59.46 361.757 59.2396V58.2204H361.092C360.051 58.2204 359.531 58.5249 359.531 59.134C359.531 59.4003 359.619 59.6084 359.797 59.7584C359.975 59.9083 360.203 59.9833 360.481 59.9833Z" fill="white"/>
<path d="M366.414 56.4253C366.286 56.4039 366.147 56.3932 365.997 56.3932C365.44 56.3932 365.062 56.6304 364.863 57.1048V60.6307H364.013V55.6632H364.84L364.854 56.2371C365.132 55.7933 365.527 55.5714 366.038 55.5714C366.203 55.5714 366.329 55.5928 366.414 55.6356V56.4253Z" fill="white"/>
<path d="M368.078 55.6632L368.106 56.2876C368.485 55.8101 368.981 55.5714 369.593 55.5714C370.643 55.5714 371.173 56.1636 371.182 57.3481V60.6307H370.332V57.3435C370.329 56.9854 370.247 56.7206 370.084 56.5492C369.925 56.3778 369.676 56.2922 369.336 56.2922C369.061 56.2922 368.819 56.3656 368.611 56.5125C368.403 56.6594 368.24 56.8523 368.124 57.091V60.6307H367.275V55.6632H368.078Z" fill="white"/>
<path d="M374.599 60.7225C373.926 60.7225 373.378 60.5021 372.956 60.0614C372.533 59.6176 372.322 59.0253 372.322 58.2847V58.1286C372.322 57.6358 372.415 57.1966 372.602 56.8109C372.792 56.4222 373.055 56.1192 373.392 55.9019C373.731 55.6815 374.099 55.5714 374.494 55.5714C375.139 55.5714 375.641 55.7841 375.999 56.2095C376.358 56.6349 376.537 57.244 376.537 58.0367V58.3902H373.171C373.184 58.88 373.326 59.2763 373.598 59.5793C373.874 59.8793 374.223 60.0292 374.645 60.0292C374.945 60.0292 375.199 59.968 375.407 59.8456C375.615 59.7232 375.797 59.561 375.954 59.359L376.472 59.763C376.056 60.4026 375.432 60.7225 374.599 60.7225ZM374.494 56.2692C374.151 56.2692 373.863 56.3947 373.63 56.6457C373.398 56.8936 373.254 57.2425 373.199 57.6924H375.687V57.6281C375.663 57.1966 375.546 56.863 375.338 56.6273C375.13 56.3886 374.849 56.2692 374.494 56.2692Z" fill="white"/>
<path d="M380 56.4253C379.871 56.4039 379.732 56.3932 379.582 56.3932C379.025 56.3932 378.647 56.6304 378.448 57.1048V60.6307H377.599V55.6632H378.425L378.439 56.2371C378.718 55.7933 379.112 55.5714 379.624 55.5714C379.789 55.5714 379.914 55.5928 380 55.6356V56.4253Z" fill="white"/>
<path d="M105.778 37.4503C105.575 40.2474 104.54 42.4494 102.671 44.0563C100.814 45.6631 98.3623 46.4666 95.3152 46.4666C91.9825 46.4666 89.3579 45.3477 87.4416 43.11C85.5372 40.8604 84.585 37.7776 84.585 33.8617V32.2727C84.585 29.7731 85.0254 27.5711 85.9062 25.6667C86.787 23.7623 88.0427 22.3042 89.6733 21.2925C91.3159 20.2688 93.2203 19.757 95.3866 19.757C98.3861 19.757 100.802 20.5605 102.635 22.1673C104.468 23.7742 105.528 26.0297 105.813 28.934H100.457C100.326 27.2557 99.8561 26.0416 99.0467 25.2918C98.2492 24.53 97.0292 24.1491 95.3866 24.1491C93.6012 24.1491 92.2622 24.7918 91.3695 26.0773C90.4887 27.3509 90.0364 29.3327 90.0126 32.0227V33.9866C90.0126 36.7957 90.4351 38.8489 91.2802 40.1463C92.1372 41.4436 93.4822 42.0923 95.3152 42.0923C96.9697 42.0923 98.2016 41.7174 99.011 40.9675C99.8322 40.2058 100.302 39.0334 100.421 37.4503H105.778Z" fill="white"/>
<path d="M118.058 46.1095H112.88V18.6858H118.058V46.1095Z" fill="white"/>
<path d="M137.176 46.1095C136.938 45.6453 136.765 45.068 136.658 44.3777C135.408 45.7703 133.783 46.4666 131.784 46.4666C129.891 46.4666 128.32 45.919 127.07 44.824C125.832 43.729 125.213 42.3483 125.213 40.6819C125.213 38.6346 125.969 37.0635 127.481 35.9684C129.004 34.8734 131.2 34.3199 134.069 34.308H136.444V33.2011C136.444 32.3084 136.211 31.5942 135.747 31.0586C135.295 30.523 134.575 30.2552 133.587 30.2552C132.718 30.2552 132.034 30.4635 131.534 30.8801C131.046 31.2966 130.802 31.868 130.802 32.594H125.642C125.642 31.4752 125.987 30.4397 126.677 29.4874C127.368 28.5352 128.344 27.7913 129.606 27.2557C130.867 26.7082 132.284 26.4344 133.855 26.4344C136.235 26.4344 138.122 27.0355 139.514 28.2377C140.919 29.4279 141.621 31.1062 141.621 33.2725V41.646C141.633 43.479 141.889 44.8657 142.389 45.806V46.1095H137.176ZM132.909 42.5208C133.67 42.5208 134.373 42.3542 135.015 42.0209C135.658 41.6758 136.134 41.2175 136.444 40.6462V37.3253H134.515C131.932 37.3253 130.558 38.218 130.391 40.0034L130.373 40.3069C130.373 40.9497 130.599 41.4794 131.052 41.8959C131.504 42.3125 132.123 42.5208 132.909 42.5208Z" fill="white"/>
<path d="M159.704 40.7711C159.704 40.1403 159.388 39.6463 158.757 39.2893C158.139 38.9203 157.139 38.593 155.758 38.3073C151.164 37.3432 148.866 35.3912 148.866 32.4512C148.866 30.7372 149.575 29.3089 150.991 28.1662C152.419 27.0117 154.282 26.4344 156.579 26.4344C159.031 26.4344 160.989 27.0117 162.453 28.1662C163.929 29.3208 164.667 30.8205 164.667 32.6654H159.507C159.507 31.9275 159.269 31.3204 158.793 30.8443C158.317 30.3563 157.573 30.1123 156.561 30.1123C155.693 30.1123 155.02 30.3087 154.544 30.7015C154.068 31.0943 153.83 31.5942 153.83 32.2012C153.83 32.7726 154.098 33.2368 154.633 33.5939C155.181 33.939 156.097 34.2425 157.383 34.5044C158.668 34.7544 159.751 35.04 160.632 35.3614C163.358 36.3612 164.721 38.0931 164.721 40.5569C164.721 42.3185 163.965 43.7468 162.453 44.8419C160.942 45.925 158.99 46.4666 156.597 46.4666C154.978 46.4666 153.538 46.1809 152.276 45.6096C151.027 45.0263 150.045 44.2348 149.331 43.235C148.616 42.2233 148.259 41.1342 148.259 39.9677H153.151C153.199 40.8842 153.538 41.5865 154.169 42.0745C154.8 42.5625 155.645 42.8065 156.704 42.8065C157.692 42.8065 158.436 42.622 158.936 42.253C159.448 41.8721 159.704 41.3782 159.704 40.7711Z" fill="white"/>
<path d="M182.178 40.7711C182.178 40.1403 181.863 39.6463 181.232 39.2893C180.613 38.9203 179.613 38.593 178.233 38.3073C173.638 37.3432 171.341 35.3912 171.341 32.4512C171.341 30.7372 172.049 29.3089 173.466 28.1662C174.894 27.0117 176.757 26.4344 179.054 26.4344C181.506 26.4344 183.464 27.0117 184.928 28.1662C186.404 29.3208 187.142 30.8205 187.142 32.6654H181.982C181.982 31.9275 181.744 31.3204 181.268 30.8443C180.792 30.3563 180.048 30.1123 179.036 30.1123C178.167 30.1123 177.495 30.3087 177.019 30.7015C176.542 31.0943 176.304 31.5942 176.304 32.2012C176.304 32.7726 176.572 33.2368 177.108 33.5939C177.655 33.939 178.572 34.2425 179.857 34.5044C181.143 34.7544 182.226 35.04 183.107 35.3614C185.832 36.3612 187.195 38.0931 187.195 40.5569C187.195 42.3185 186.439 43.7468 184.928 44.8419C183.416 45.925 181.464 46.4666 179.072 46.4666C177.453 46.4666 176.013 46.1809 174.751 45.6096C173.501 45.0263 172.519 44.2348 171.805 43.235C171.091 42.2233 170.734 41.1342 170.734 39.9677H175.626C175.674 40.8842 176.013 41.5865 176.644 42.0745C177.274 42.5625 178.12 42.8065 179.179 42.8065C180.167 42.8065 180.911 42.622 181.411 42.253C181.922 41.8721 182.178 41.3782 182.178 40.7711Z" fill="white"/>
<path d="M214.098 24.4526H206.135V46.1095H200.779V24.4526H192.923V20.1141H214.098V24.4526Z" fill="white"/>
<path d="M227.77 46.4666C224.937 46.4666 222.628 45.5977 220.843 43.8599C219.069 42.1221 218.183 39.807 218.183 36.9147V36.4148C218.183 34.4747 218.558 32.7428 219.307 31.2193C220.057 29.6838 221.117 28.5055 222.485 27.6842C223.866 26.851 225.437 26.4344 227.199 26.4344C229.841 26.4344 231.918 27.2676 233.43 28.934C234.953 30.6003 235.715 32.963 235.715 36.022V38.1288H223.414C223.58 39.3904 224.08 40.4022 224.914 41.1639C225.759 41.9257 226.824 42.3066 228.109 42.3066C230.097 42.3066 231.65 41.5865 232.769 40.1463L235.305 42.985C234.531 44.0801 233.483 44.9371 232.162 45.556C230.841 46.163 229.377 46.4666 227.77 46.4666ZM227.181 30.6122C226.157 30.6122 225.324 30.9574 224.681 31.6478C224.051 32.3381 223.646 33.326 223.467 34.6115H230.645V34.2009C230.621 33.0582 230.311 32.1774 229.716 31.5585C229.121 30.9277 228.276 30.6122 227.181 30.6122Z" fill="white"/>
<path d="M250.352 42.3066C251.304 42.3066 252.078 42.0447 252.673 41.521C253.268 40.9973 253.578 40.301 253.601 39.4321H258.44C258.428 40.7414 258.071 41.9436 257.369 43.0386C256.666 44.1217 255.702 44.9668 254.476 45.5739C253.262 46.169 251.917 46.4666 250.441 46.4666C247.68 46.4666 245.502 45.5917 243.907 43.842C242.312 42.0804 241.514 39.6523 241.514 36.5576V36.2184C241.514 33.2427 242.306 30.8681 243.889 29.0947C245.472 27.3212 247.644 26.4344 250.405 26.4344C252.822 26.4344 254.756 27.1248 256.208 28.5055C257.672 29.8743 258.416 31.7013 258.44 33.9866H253.601C253.578 32.9868 253.268 32.1774 252.673 31.5585C252.078 30.9277 251.292 30.6122 250.316 30.6122C249.114 30.6122 248.203 31.0526 247.585 31.9334C246.977 32.8023 246.674 34.2187 246.674 36.1827V36.7183C246.674 38.706 246.977 40.1344 247.585 41.0033C248.192 41.8721 249.114 42.3066 250.352 42.3066Z" fill="white"/>
<path d="M270.077 28.8983C271.446 27.2557 273.166 26.4344 275.237 26.4344C279.426 26.4344 281.551 28.8685 281.611 33.7367V46.1095H276.451V33.8795C276.451 32.7726 276.213 31.9572 275.737 31.4335C275.261 30.8979 274.469 30.6301 273.362 30.6301C271.85 30.6301 270.755 31.2133 270.077 32.3798V46.1095H264.917V18.6858H270.077V28.8983Z" fill="white"/>
<defs>
<clipPath id="clip0">
<rect width="20.2611" height="17.7197" fill="white" transform="translate(351.561 23.9065)"/>
</clipPath>
</defs>
</svg>
