<svg width="1200" height="630" viewBox="0 0 1200 630" fill="none" xmlns="http://www.w3.org/2000/svg">
<rect width="1200" height="630" fill="white"/>
<rect width="1200" height="630" fill="#7DBDCE"/>
<g clip-path="url(#clip0)">
<path d="M866.493 308.432L856.922 295.063C856.114 293.933 855.686 292.629 855.686 291.297L855.699 281.318L843.429 281.307L843.417 291.279C843.415 292.612 842.983 293.919 842.171 295.049L832.567 308.401C832.049 309.121 831.788 309.943 831.788 310.765C831.788 311.502 831.997 312.242 832.419 312.91C833.313 314.326 835.013 315.205 836.862 315.207L862.183 315.23H862.184C862.253 315.23 862.288 315.227 862.289 315.227L862.288 315.224C864.095 315.193 865.75 314.328 866.63 312.943V312.941C867.055 312.271 867.266 311.529 867.266 310.789C867.266 309.97 867.007 309.151 866.493 308.432ZM864.039 311.686C863.666 312.274 862.958 312.641 862.189 312.639C862.181 312.639 862.179 312.641 862.174 312.641L836.864 312.616C836.095 312.616 835.384 312.249 835.014 311.659C834.836 311.378 834.75 311.073 834.75 310.765C834.75 310.421 834.858 310.081 835.074 309.78L844.677 296.429C845.787 294.886 846.375 293.103 846.378 291.28L846.387 283.9L852.734 283.906L852.724 291.288V291.291V291.297C852.724 293.115 853.309 294.895 854.412 296.437L863.982 309.806C864.197 310.106 864.304 310.447 864.305 310.789C864.304 311.098 864.217 311.405 864.039 311.686Z" fill="white"/>
<path d="M854.651 300.607C854.542 300.454 854.35 300.361 854.144 300.361L844.936 300.353C844.729 300.353 844.537 300.444 844.428 300.598L837.822 309.779C837.707 309.941 837.699 310.145 837.805 310.312C837.91 310.48 838.112 310.583 838.33 310.583L860.724 310.604C860.942 310.604 861.143 310.501 861.249 310.334C861.355 310.167 861.348 309.963 861.232 309.802L854.651 300.607Z" fill="white"/>
</g>
<path d="M757.309 308.603H769.839V314.14H750.11V284.28H757.309V308.603Z" fill="white"/>
<path d="M785.056 314.14C784.81 313.688 784.591 313.025 784.399 312.15C783.128 313.75 781.351 314.55 779.067 314.55C776.976 314.55 775.198 313.921 773.735 312.663C772.272 311.392 771.541 309.799 771.541 307.885C771.541 305.479 772.43 303.66 774.207 302.43C775.984 301.199 778.568 300.584 781.959 300.584H784.092V299.415C784.092 297.378 783.21 296.359 781.446 296.359C779.806 296.359 778.985 297.166 778.985 298.779H772.074C772.074 296.633 772.983 294.89 774.802 293.55C776.634 292.21 778.965 291.54 781.795 291.54C784.625 291.54 786.86 292.23 788.501 293.611C790.142 294.992 790.982 296.886 791.023 299.292V309.115C791.051 311.152 791.365 312.711 791.967 313.791V314.14H785.056ZM780.729 309.628C781.59 309.628 782.301 309.443 782.861 309.074C783.436 308.705 783.846 308.288 784.092 307.823V304.275H782.082C779.676 304.275 778.473 305.355 778.473 307.516C778.473 308.145 778.685 308.657 779.108 309.054C779.532 309.437 780.072 309.628 780.729 309.628Z" fill="white"/>
<path d="M815.469 303.229C815.469 306.866 814.717 309.662 813.213 311.617C811.709 313.572 809.59 314.55 806.855 314.55C804.6 314.55 802.781 313.654 801.4 311.863L801.113 314.14H794.92V282.64H801.831V293.734C803.116 292.271 804.777 291.54 806.814 291.54C809.576 291.54 811.709 292.531 813.213 294.514C814.717 296.496 815.469 299.285 815.469 302.881V303.229ZM808.537 302.799C808.537 300.666 808.25 299.148 807.676 298.246C807.115 297.33 806.247 296.872 805.071 296.872C803.513 296.872 802.433 297.467 801.831 298.656V307.475C802.419 308.65 803.513 309.238 805.112 309.238C806.739 309.238 807.771 308.445 808.209 306.859C808.428 306.08 808.537 304.727 808.537 302.799Z" fill="white"/>
<path fill-rule="evenodd" clip-rule="evenodd" d="M876.201 274H720.594C718.385 274 716.594 275.791 716.594 278V321.622C716.594 323.831 718.385 325.622 720.594 325.622H876.201C878.41 325.622 880.201 323.831 880.201 321.621V278C880.201 275.791 878.41 274 876.201 274ZM720.594 270C716.175 270 712.594 273.582 712.594 278V321.622C712.594 326.04 716.175 329.622 720.594 329.622H876.201C880.619 329.622 884.201 326.04 884.201 321.621V278C884.201 273.582 880.619 270 876.201 270H720.594Z" fill="white"/>
<path d="M320.236 355.661C320.816 355.661 321.323 355.486 321.757 355.134C322.19 354.782 322.431 354.343 322.478 353.816H324.016C323.986 354.361 323.799 354.879 323.453 355.371C323.107 355.864 322.645 356.256 322.064 356.549C321.49 356.842 320.881 356.989 320.236 356.989C318.941 356.989 317.91 356.558 317.143 355.697C316.381 354.829 316 353.646 316 352.146V351.873C316 350.948 316.17 350.124 316.51 349.404C316.85 348.683 317.336 348.123 317.969 347.725C318.607 347.326 319.36 347.127 320.228 347.127C321.294 347.127 322.179 347.447 322.882 348.085C323.591 348.724 323.969 349.553 324.016 350.573H322.478C322.431 349.957 322.196 349.453 321.774 349.061C321.358 348.662 320.843 348.463 320.228 348.463C319.401 348.463 318.76 348.762 318.303 349.36C317.852 349.951 317.626 350.81 317.626 351.935V352.242C317.626 353.338 317.852 354.182 318.303 354.774C318.754 355.365 319.398 355.661 320.236 355.661Z" fill="white"/>
<path d="M330.584 348.762C330.338 348.721 330.072 348.7 329.785 348.7C328.718 348.7 327.995 349.155 327.614 350.063V356.813H325.988V347.303H327.57L327.596 348.402C328.129 347.552 328.885 347.127 329.864 347.127C330.18 347.127 330.42 347.168 330.584 347.25V348.762Z" fill="white"/>
<path d="M336.002 356.989C334.713 356.989 333.664 356.567 332.855 355.723C332.047 354.873 331.642 353.74 331.642 352.322V352.023C331.642 351.079 331.821 350.239 332.179 349.5C332.542 348.756 333.046 348.176 333.69 347.76C334.341 347.338 335.044 347.127 335.8 347.127C337.036 347.127 337.997 347.534 338.683 348.349C339.368 349.163 339.711 350.329 339.711 351.847V352.524H333.268C333.292 353.461 333.564 354.22 334.086 354.8C334.613 355.374 335.281 355.661 336.09 355.661C336.664 355.661 337.15 355.544 337.549 355.31C337.947 355.075 338.296 354.765 338.595 354.378L339.588 355.152C338.791 356.376 337.596 356.989 336.002 356.989ZM335.8 348.463C335.143 348.463 334.593 348.703 334.147 349.184C333.702 349.658 333.427 350.326 333.321 351.188H338.085V351.065C338.038 350.239 337.815 349.6 337.417 349.149C337.018 348.692 336.479 348.463 335.8 348.463Z" fill="white"/>
<path d="M347.616 356.813C347.522 356.625 347.446 356.291 347.387 355.811C346.631 356.596 345.729 356.989 344.68 356.989C343.743 356.989 342.972 356.725 342.369 356.198C341.771 355.664 341.472 354.99 341.472 354.176C341.472 353.186 341.847 352.418 342.597 351.873C343.353 351.323 344.413 351.047 345.779 351.047H347.361V350.3C347.361 349.732 347.191 349.281 346.851 348.947C346.511 348.607 346.01 348.437 345.348 348.437C344.768 348.437 344.282 348.583 343.889 348.876C343.496 349.169 343.3 349.524 343.3 349.94H341.665C341.665 349.465 341.832 349.008 342.166 348.569C342.506 348.123 342.963 347.772 343.537 347.514C344.118 347.256 344.753 347.127 345.445 347.127C346.54 347.127 347.399 347.403 348.02 347.953C348.641 348.498 348.963 349.251 348.987 350.212V354.589C348.987 355.462 349.098 356.156 349.321 356.672V356.813H347.616ZM344.917 355.573C345.427 355.573 345.911 355.442 346.368 355.178C346.825 354.914 347.156 354.572 347.361 354.15V352.198H346.086C344.094 352.198 343.098 352.781 343.098 353.948C343.098 354.457 343.268 354.856 343.608 355.143C343.948 355.43 344.384 355.573 344.917 355.573Z" fill="white"/>
<path d="M353.886 345V347.303H355.661V348.56H353.886V354.457C353.886 354.838 353.965 355.125 354.123 355.319C354.281 355.506 354.551 355.6 354.931 355.6C355.119 355.6 355.377 355.565 355.705 355.494V356.813C355.277 356.93 354.861 356.989 354.457 356.989C353.73 356.989 353.182 356.769 352.813 356.329C352.444 355.89 352.26 355.266 352.26 354.457V348.56H350.528V347.303H352.26V345H353.886Z" fill="white"/>
<path d="M361.658 356.989C360.369 356.989 359.321 356.567 358.512 355.723C357.703 354.873 357.299 353.74 357.299 352.322V352.023C357.299 351.079 357.478 350.239 357.835 349.5C358.199 348.756 358.702 348.176 359.347 347.76C359.997 347.338 360.7 347.127 361.456 347.127C362.693 347.127 363.654 347.534 364.339 348.349C365.025 349.163 365.367 350.329 365.367 351.847V352.524H358.925C358.949 353.461 359.221 354.22 359.742 354.8C360.27 355.374 360.938 355.661 361.746 355.661C362.321 355.661 362.807 355.544 363.205 355.31C363.604 355.075 363.952 354.765 364.251 354.378L365.244 355.152C364.448 356.376 363.252 356.989 361.658 356.989ZM361.456 348.463C360.8 348.463 360.249 348.703 359.804 349.184C359.359 349.658 359.083 350.326 358.978 351.188H363.741V351.065C363.695 350.239 363.472 349.6 363.074 349.149C362.675 348.692 362.136 348.463 361.456 348.463Z" fill="white"/>
<path d="M374.216 345V347.303H375.991V348.56H374.216V354.457C374.216 354.838 374.295 355.125 374.453 355.319C374.612 355.506 374.881 355.6 375.262 355.6C375.449 355.6 375.707 355.565 376.035 355.494V356.813C375.608 356.93 375.192 356.989 374.787 356.989C374.061 356.989 373.513 356.769 373.144 356.329C372.775 355.89 372.59 355.266 372.59 354.457V348.56H370.859V347.303H372.59V345H374.216Z" fill="white"/>
<path d="M379.669 348.454C380.389 347.57 381.327 347.127 382.481 347.127C384.491 347.127 385.505 348.261 385.522 350.529V356.813H383.896V350.52C383.89 349.834 383.732 349.327 383.422 348.999C383.117 348.671 382.639 348.507 381.989 348.507C381.462 348.507 380.999 348.648 380.6 348.929C380.202 349.21 379.891 349.579 379.669 350.036V356.813H378.043V343.313H379.669V348.454Z" fill="white"/>
<path d="M392.047 356.989C390.758 356.989 389.709 356.567 388.9 355.723C388.092 354.873 387.688 353.74 387.688 352.322V352.023C387.688 351.079 387.866 350.239 388.224 349.5C388.587 348.756 389.091 348.176 389.735 347.76C390.386 347.338 391.089 347.127 391.845 347.127C393.081 347.127 394.042 347.534 394.728 348.349C395.413 349.163 395.756 350.329 395.756 351.847V352.524H389.314C389.337 353.461 389.609 354.22 390.131 354.8C390.658 355.374 391.326 355.661 392.135 355.661C392.709 355.661 393.195 355.544 393.594 355.31C393.992 355.075 394.341 354.765 394.64 354.378L395.633 355.152C394.836 356.376 393.641 356.989 392.047 356.989ZM391.845 348.463C391.189 348.463 390.638 348.703 390.192 349.184C389.747 349.658 389.472 350.326 389.366 351.188H394.13V351.065C394.083 350.239 393.86 349.6 393.462 349.149C393.064 348.692 392.525 348.463 391.845 348.463Z" fill="white"/>
<path d="M404.165 356.813H402.539V343.313H404.165V356.813Z" fill="white"/>
<path d="M410.866 356.989C409.577 356.989 408.528 356.567 407.719 355.723C406.911 354.873 406.506 353.74 406.506 352.322V352.023C406.506 351.079 406.685 350.239 407.042 349.5C407.406 348.756 407.91 348.176 408.554 347.76C409.205 347.338 409.908 347.127 410.664 347.127C411.9 347.127 412.861 347.534 413.546 348.349C414.232 349.163 414.575 350.329 414.575 351.847V352.524H408.132C408.156 353.461 408.428 354.22 408.95 354.8C409.477 355.374 410.145 355.661 410.954 355.661C411.528 355.661 412.014 355.544 412.413 355.31C412.811 355.075 413.16 354.765 413.458 354.378L414.452 355.152C413.655 356.376 412.459 356.989 410.866 356.989ZM410.664 348.463C410.007 348.463 409.457 348.703 409.011 349.184C408.566 349.658 408.29 350.326 408.185 351.188H412.949V351.065C412.902 350.239 412.679 349.6 412.281 349.149C411.882 348.692 411.343 348.463 410.664 348.463Z" fill="white"/>
<path d="M422.479 356.813C422.386 356.625 422.31 356.291 422.251 355.811C421.495 356.596 420.593 356.989 419.544 356.989C418.606 356.989 417.836 356.725 417.232 356.198C416.635 355.664 416.336 354.99 416.336 354.176C416.336 353.186 416.711 352.418 417.461 351.873C418.217 351.323 419.277 351.047 420.643 351.047H422.225V350.3C422.225 349.732 422.055 349.281 421.715 348.947C421.375 348.607 420.874 348.437 420.212 348.437C419.632 348.437 419.145 348.583 418.753 348.876C418.36 349.169 418.164 349.524 418.164 349.94H416.529C416.529 349.465 416.696 349.008 417.03 348.569C417.37 348.123 417.827 347.772 418.401 347.514C418.981 347.256 419.617 347.127 420.309 347.127C421.404 347.127 422.263 347.403 422.884 347.953C423.505 348.498 423.827 349.251 423.851 350.212V354.589C423.851 355.462 423.962 356.156 424.185 356.672V356.813H422.479ZM419.781 355.573C420.291 355.573 420.774 355.442 421.231 355.178C421.688 354.914 422.019 354.572 422.225 354.15V352.198H420.95C418.958 352.198 417.962 352.781 417.962 353.948C417.962 354.457 418.132 354.856 418.472 355.143C418.811 355.43 419.248 355.573 419.781 355.573Z" fill="white"/>
<path d="M431.14 348.762C430.894 348.721 430.627 348.7 430.34 348.7C429.274 348.7 428.55 349.155 428.169 350.063V356.813H426.543V347.303H428.125L428.152 348.402C428.685 347.552 429.441 347.127 430.419 347.127C430.736 347.127 430.976 347.168 431.14 347.25V348.762Z" fill="white"/>
<path d="M434.325 347.303L434.378 348.498C435.104 347.584 436.054 347.127 437.225 347.127C439.235 347.127 440.249 348.261 440.266 350.529V356.813H438.64V350.52C438.635 349.834 438.476 349.327 438.166 348.999C437.861 348.671 437.384 348.507 436.733 348.507C436.206 348.507 435.743 348.648 435.345 348.929C434.946 349.21 434.636 349.579 434.413 350.036V356.813H432.787V347.303H434.325Z" fill="white"/>
<path d="M444.629 356.813H443.003V347.303H444.629V356.813ZM442.871 344.781C442.871 344.517 442.95 344.294 443.109 344.113C443.273 343.931 443.513 343.84 443.829 343.84C444.146 343.84 444.386 343.931 444.55 344.113C444.714 344.294 444.796 344.517 444.796 344.781C444.796 345.044 444.714 345.264 444.55 345.44C444.386 345.615 444.146 345.703 443.829 345.703C443.513 345.703 443.273 345.615 443.109 345.44C442.95 345.264 442.871 345.044 442.871 344.781Z" fill="white"/>
<path d="M448.922 347.303L448.974 348.498C449.701 347.584 450.65 347.127 451.822 347.127C453.832 347.127 454.845 348.261 454.863 350.529V356.813H453.237V350.52C453.231 349.834 453.073 349.327 452.762 348.999C452.458 348.671 451.98 348.507 451.33 348.507C450.802 348.507 450.34 348.648 449.941 348.929C449.543 349.21 449.232 349.579 449.01 350.036V356.813H447.384V347.303H448.922Z" fill="white"/>
<path d="M457.072 351.979C457.072 350.496 457.415 349.319 458.101 348.446C458.786 347.567 459.695 347.127 460.825 347.127C461.986 347.127 462.891 347.537 463.541 348.358L463.62 347.303H465.106V356.584C465.106 357.815 464.739 358.784 464.007 359.493C463.28 360.202 462.302 360.557 461.071 360.557C460.386 360.557 459.715 360.41 459.059 360.117C458.403 359.824 457.902 359.423 457.556 358.913L458.4 357.938C459.097 358.799 459.949 359.23 460.957 359.23C461.748 359.23 462.363 359.007 462.803 358.562C463.248 358.116 463.471 357.49 463.471 356.681V355.864C462.821 356.614 461.933 356.989 460.808 356.989C459.695 356.989 458.792 356.54 458.101 355.644C457.415 354.747 457.072 353.526 457.072 351.979ZM458.707 352.163C458.707 353.236 458.927 354.079 459.366 354.695C459.806 355.304 460.421 355.609 461.212 355.609C462.238 355.609 462.99 355.143 463.471 354.211V349.869C462.973 348.961 462.226 348.507 461.23 348.507C460.439 348.507 459.821 348.815 459.375 349.43C458.93 350.045 458.707 350.956 458.707 352.163Z" fill="white"/>
<path d="M474.086 356.813H472.46V347.303H474.086V356.813ZM472.328 344.781C472.328 344.517 472.407 344.294 472.566 344.113C472.73 343.931 472.97 343.84 473.286 343.84C473.603 343.84 473.843 343.931 474.007 344.113C474.171 344.294 474.253 344.517 474.253 344.781C474.253 345.044 474.171 345.264 474.007 345.44C473.843 345.615 473.603 345.703 473.286 345.703C472.97 345.703 472.73 345.615 472.566 345.44C472.407 345.264 472.328 345.044 472.328 344.781Z" fill="white"/>
<path d="M478.378 347.303L478.431 348.498C479.158 347.584 480.107 347.127 481.279 347.127C483.289 347.127 484.302 348.261 484.32 350.529V356.813H482.694V350.52C482.688 349.834 482.53 349.327 482.219 348.999C481.915 348.671 481.437 348.507 480.787 348.507C480.259 348.507 479.796 348.648 479.398 348.929C479 349.21 478.689 349.579 478.466 350.036V356.813H476.84V347.303H478.378Z" fill="white"/>
<path d="M488.454 347.303L488.507 348.498C489.233 347.584 490.183 347.127 491.355 347.127C493.364 347.127 494.378 348.261 494.396 350.529V356.813H492.77V350.52C492.764 349.834 492.605 349.327 492.295 348.999C491.99 348.671 491.513 348.507 490.862 348.507C490.335 348.507 489.872 348.648 489.474 348.929C489.075 349.21 488.765 349.579 488.542 350.036V356.813H486.916V347.303H488.454Z" fill="white"/>
<path d="M496.561 351.97C496.561 351.038 496.743 350.2 497.106 349.456C497.475 348.712 497.985 348.138 498.635 347.734C499.291 347.329 500.039 347.127 500.876 347.127C502.171 347.127 503.217 347.575 504.014 348.472C504.817 349.368 505.218 350.561 505.218 352.049V352.163C505.218 353.089 505.04 353.921 504.682 354.659C504.331 355.392 503.824 355.963 503.162 356.373C502.505 356.783 501.749 356.989 500.894 356.989C499.605 356.989 498.559 356.54 497.756 355.644C496.959 354.747 496.561 353.561 496.561 352.084V351.97ZM498.196 352.163C498.196 353.218 498.439 354.065 498.925 354.703C499.417 355.342 500.074 355.661 500.894 355.661C501.72 355.661 502.376 355.339 502.863 354.695C503.349 354.044 503.592 353.136 503.592 351.97C503.592 350.927 503.343 350.083 502.845 349.439C502.353 348.788 501.697 348.463 500.876 348.463C500.074 348.463 499.426 348.782 498.934 349.421C498.442 350.06 498.196 350.974 498.196 352.163Z" fill="white"/>
<path d="M510.398 354.607L512.754 347.303H514.415L511.005 356.813H509.766L506.32 347.303H507.981L510.398 354.607Z" fill="white"/>
<path d="M521.854 356.813C521.76 356.625 521.684 356.291 521.625 355.811C520.87 356.596 519.967 356.989 518.918 356.989C517.981 356.989 517.21 356.725 516.607 356.198C516.009 355.664 515.71 354.99 515.71 354.176C515.71 353.186 516.085 352.418 516.835 351.873C517.591 351.323 518.652 351.047 520.017 351.047H521.599V350.3C521.599 349.732 521.429 349.281 521.089 348.947C520.749 348.607 520.248 348.437 519.586 348.437C519.006 348.437 518.52 348.583 518.127 348.876C517.735 349.169 517.538 349.524 517.538 349.94H515.904C515.904 349.465 516.071 349.008 516.405 348.569C516.745 348.123 517.202 347.772 517.776 347.514C518.356 347.256 518.992 347.127 519.683 347.127C520.779 347.127 521.637 347.403 522.258 347.953C522.879 348.498 523.202 349.251 523.225 350.212V354.589C523.225 355.462 523.336 356.156 523.559 356.672V356.813H521.854ZM519.156 355.573C519.665 355.573 520.149 355.442 520.606 355.178C521.063 354.914 521.394 354.572 521.599 354.15V352.198H520.325C518.332 352.198 517.336 352.781 517.336 353.948C517.336 354.457 517.506 354.856 517.846 355.143C518.186 355.43 518.622 355.573 519.156 355.573Z" fill="white"/>
<path d="M528.124 345V347.303H529.899V348.56H528.124V354.457C528.124 354.838 528.203 355.125 528.361 355.319C528.519 355.506 528.789 355.6 529.17 355.6C529.357 355.6 529.615 355.565 529.943 355.494V356.813C529.515 356.93 529.099 356.989 528.695 356.989C527.969 356.989 527.421 356.769 527.052 356.329C526.682 355.89 526.498 355.266 526.498 354.457V348.56H524.766V347.303H526.498V345H528.124Z" fill="white"/>
<path d="M533.717 356.813H532.091V347.303H533.717V356.813ZM531.959 344.781C531.959 344.517 532.038 344.294 532.197 344.113C532.361 343.931 532.601 343.84 532.917 343.84C533.234 343.84 533.474 343.931 533.638 344.113C533.802 344.294 533.884 344.517 533.884 344.781C533.884 345.044 533.802 345.264 533.638 345.44C533.474 345.615 533.234 345.703 532.917 345.703C532.601 345.703 532.361 345.615 532.197 345.44C532.038 345.264 531.959 345.044 531.959 344.781Z" fill="white"/>
<path d="M536.041 351.97C536.041 351.038 536.222 350.2 536.586 349.456C536.955 348.712 537.465 348.138 538.115 347.734C538.771 347.329 539.518 347.127 540.356 347.127C541.651 347.127 542.697 347.575 543.494 348.472C544.297 349.368 544.698 350.561 544.698 352.049V352.163C544.698 353.089 544.519 353.921 544.162 354.659C543.81 355.392 543.303 355.963 542.641 356.373C541.985 356.783 541.229 356.989 540.374 356.989C539.085 356.989 538.039 356.54 537.236 355.644C536.439 354.747 536.041 353.561 536.041 352.084V351.97ZM537.676 352.163C537.676 353.218 537.919 354.065 538.405 354.703C538.897 355.342 539.553 355.661 540.374 355.661C541.2 355.661 541.856 355.339 542.343 354.695C542.829 354.044 543.072 353.136 543.072 351.97C543.072 350.927 542.823 350.083 542.325 349.439C541.833 348.788 541.177 348.463 540.356 348.463C539.553 348.463 538.906 348.782 538.414 349.421C537.922 350.06 537.676 350.974 537.676 352.163Z" fill="white"/>
<path d="M548.419 347.303L548.472 348.498C549.198 347.584 550.148 347.127 551.32 347.127C553.329 347.127 554.343 348.261 554.361 350.529V356.813H552.735V350.52C552.729 349.834 552.571 349.327 552.26 348.999C551.955 348.671 551.478 348.507 550.827 348.507C550.3 348.507 549.837 348.648 549.439 348.929C549.04 349.21 548.73 349.579 548.507 350.036V356.813H546.881V347.303H548.419Z" fill="white"/>
<path d="M569.985 354.572L571.814 347.303H573.44L570.671 356.813H569.353L567.041 349.606L564.791 356.813H563.473L560.713 347.303H562.33L564.202 354.422L566.417 347.303H567.727L569.985 354.572Z" fill="white"/>
<path d="M577.011 356.813H575.385V347.303H577.011V356.813ZM575.254 344.781C575.254 344.517 575.333 344.294 575.491 344.113C575.655 343.931 575.895 343.84 576.212 343.84C576.528 343.84 576.768 343.931 576.932 344.113C577.096 344.294 577.178 344.517 577.178 344.781C577.178 345.044 577.096 345.264 576.932 345.44C576.768 345.615 576.528 345.703 576.212 345.703C575.895 345.703 575.655 345.615 575.491 345.44C575.333 345.264 575.254 345.044 575.254 344.781Z" fill="white"/>
<path d="M581.972 345V347.303H583.747V348.56H581.972V354.457C581.972 354.838 582.051 355.125 582.209 355.319C582.367 355.506 582.637 355.6 583.018 355.6C583.205 355.6 583.463 355.565 583.791 355.494V356.813C583.363 356.93 582.947 356.989 582.543 356.989C581.816 356.989 581.269 356.769 580.899 356.329C580.53 355.89 580.346 355.266 580.346 354.457V348.56H578.614V347.303H580.346V345H581.972Z" fill="white"/>
<path d="M587.424 348.454C588.145 347.57 589.083 347.127 590.237 347.127C592.247 347.127 593.26 348.261 593.278 350.529V356.813H591.652V350.52C591.646 349.834 591.488 349.327 591.177 348.999C590.873 348.671 590.395 348.507 589.745 348.507C589.217 348.507 588.754 348.648 588.356 348.929C587.958 349.21 587.647 349.579 587.424 350.036V356.813H585.798V343.313H587.424V348.454Z" fill="white"/>
<path d="M602.671 345V347.303H604.447V348.56H602.671V354.457C602.671 354.838 602.75 355.125 602.909 355.319C603.067 355.506 603.336 355.6 603.717 355.6C603.905 355.6 604.163 355.565 604.491 355.494V356.813C604.063 356.93 603.647 356.989 603.243 356.989C602.516 356.989 601.968 356.769 601.599 356.329C601.23 355.89 601.045 355.266 601.045 354.457V348.56H599.314V347.303H601.045V345H602.671Z" fill="white"/>
<path d="M610.444 356.989C609.155 356.989 608.106 356.567 607.298 355.723C606.489 354.873 606.085 353.74 606.085 352.322V352.023C606.085 351.079 606.264 350.239 606.621 349.5C606.984 348.756 607.488 348.176 608.133 347.76C608.783 347.338 609.486 347.127 610.242 347.127C611.478 347.127 612.439 347.534 613.125 348.349C613.81 349.163 614.153 350.329 614.153 351.847V352.524H607.711C607.734 353.461 608.007 354.22 608.528 354.8C609.056 355.374 609.724 355.661 610.532 355.661C611.106 355.661 611.593 355.544 611.991 355.31C612.39 355.075 612.738 354.765 613.037 354.378L614.03 355.152C613.233 356.376 612.038 356.989 610.444 356.989ZM610.242 348.463C609.586 348.463 609.035 348.703 608.59 349.184C608.144 349.658 607.869 350.326 607.764 351.188H612.527V351.065C612.48 350.239 612.258 349.6 611.859 349.149C611.461 348.692 610.922 348.463 610.242 348.463Z" fill="white"/>
<path d="M620.001 355.661C620.581 355.661 621.088 355.486 621.522 355.134C621.955 354.782 622.196 354.343 622.243 353.816H623.781C623.751 354.361 623.564 354.879 623.218 355.371C622.872 355.864 622.41 356.256 621.829 356.549C621.255 356.842 620.646 356.989 620.001 356.989C618.706 356.989 617.675 356.558 616.908 355.697C616.146 354.829 615.765 353.646 615.765 352.146V351.873C615.765 350.948 615.935 350.124 616.275 349.404C616.615 348.683 617.101 348.123 617.734 347.725C618.372 347.326 619.125 347.127 619.993 347.127C621.059 347.127 621.944 347.447 622.647 348.085C623.356 348.724 623.734 349.553 623.781 350.573H622.243C622.196 349.957 621.961 349.453 621.539 349.061C621.123 348.662 620.608 348.463 619.993 348.463C619.166 348.463 618.525 348.762 618.068 349.36C617.617 349.951 617.391 350.81 617.391 351.935V352.242C617.391 353.338 617.617 354.182 618.068 354.774C618.519 355.365 619.163 355.661 620.001 355.661Z" fill="white"/>
<path d="M627.379 348.454C628.099 347.57 629.037 347.127 630.191 347.127C632.201 347.127 633.215 348.261 633.232 350.529V356.813H631.606V350.52C631.6 349.834 631.442 349.327 631.132 348.999C630.827 348.671 630.349 348.507 629.699 348.507C629.172 348.507 628.709 348.648 628.31 348.929C627.912 349.21 627.601 349.579 627.379 350.036V356.813H625.753V343.313H627.379V348.454Z" fill="white"/>
<path d="M646.291 356.813C646.197 356.625 646.121 356.291 646.062 355.811C645.306 356.596 644.404 356.989 643.355 356.989C642.418 356.989 641.647 356.725 641.044 356.198C640.446 355.664 640.147 354.99 640.147 354.176C640.147 353.186 640.522 352.418 641.272 351.873C642.028 351.323 643.089 351.047 644.454 351.047H646.036V350.3C646.036 349.732 645.866 349.281 645.526 348.947C645.186 348.607 644.685 348.437 644.023 348.437C643.443 348.437 642.957 348.583 642.564 348.876C642.172 349.169 641.975 349.524 641.975 349.94H640.341C640.341 349.465 640.508 349.008 640.841 348.569C641.181 348.123 641.638 347.772 642.213 347.514C642.793 347.256 643.428 347.127 644.12 347.127C645.216 347.127 646.074 347.403 646.695 347.953C647.316 348.498 647.638 349.251 647.662 350.212V354.589C647.662 355.462 647.773 356.156 647.996 356.672V356.813H646.291ZM643.592 355.573C644.102 355.573 644.586 355.442 645.043 355.178C645.5 354.914 645.831 354.572 646.036 354.15V352.198H644.761C642.769 352.198 641.773 352.781 641.773 353.948C641.773 354.457 641.943 354.856 642.283 355.143C642.623 355.43 643.059 355.573 643.592 355.573Z" fill="white"/>
<path d="M651.893 347.303L651.945 348.498C652.672 347.584 653.621 347.127 654.793 347.127C656.803 347.127 657.817 348.261 657.834 350.529V356.813H656.208V350.52C656.202 349.834 656.044 349.327 655.734 348.999C655.429 348.671 654.951 348.507 654.301 348.507C653.774 348.507 653.311 348.648 652.912 348.929C652.514 349.21 652.203 349.579 651.981 350.036V356.813H650.355V347.303H651.893Z" fill="white"/>
<path d="M660.035 351.979C660.035 350.52 660.38 349.348 661.072 348.463C661.763 347.573 662.669 347.127 663.788 347.127C664.901 347.127 665.783 347.508 666.433 348.27V343.313H668.059V356.813H666.565L666.486 355.793C665.836 356.59 664.93 356.989 663.77 356.989C662.669 356.989 661.769 356.537 661.072 355.635C660.38 354.733 660.035 353.555 660.035 352.102V351.979ZM661.661 352.163C661.661 353.241 661.883 354.085 662.329 354.695C662.774 355.304 663.389 355.609 664.174 355.609C665.206 355.609 665.959 355.146 666.433 354.22V349.852C665.947 348.955 665.2 348.507 664.192 348.507C663.395 348.507 662.774 348.815 662.329 349.43C661.883 350.045 661.661 350.956 661.661 352.163Z" fill="white"/>
<path d="M683.394 352.163C683.394 353.616 683.06 354.785 682.392 355.67C681.724 356.549 680.828 356.989 679.703 356.989C678.501 356.989 677.573 356.564 676.917 355.714L676.837 356.813H675.343V343.313H676.969V348.349C677.626 347.534 678.531 347.127 679.685 347.127C680.839 347.127 681.745 347.564 682.401 348.437C683.063 349.31 683.394 350.505 683.394 352.023V352.163ZM681.768 351.979C681.768 350.871 681.554 350.016 681.126 349.412C680.699 348.809 680.084 348.507 679.281 348.507C678.209 348.507 677.438 349.005 676.969 350.001V354.115C677.467 355.111 678.244 355.609 679.298 355.609C680.078 355.609 680.684 355.307 681.118 354.703C681.551 354.1 681.768 353.192 681.768 351.979Z" fill="white"/>
<path d="M689.541 356.989C688.252 356.989 687.203 356.567 686.395 355.723C685.586 354.873 685.182 353.74 685.182 352.322V352.023C685.182 351.079 685.36 350.239 685.718 349.5C686.081 348.756 686.585 348.176 687.229 347.76C687.88 347.338 688.583 347.127 689.339 347.127C690.575 347.127 691.536 347.534 692.222 348.349C692.907 349.163 693.25 350.329 693.25 351.847V352.524H686.808C686.831 353.461 687.103 354.22 687.625 354.8C688.152 355.374 688.82 355.661 689.629 355.661C690.203 355.661 690.689 355.544 691.088 355.31C691.486 355.075 691.835 354.765 692.134 354.378L693.127 355.152C692.33 356.376 691.135 356.989 689.541 356.989ZM689.339 348.463C688.683 348.463 688.132 348.703 687.686 349.184C687.241 349.658 686.966 350.326 686.86 351.188H691.624V351.065C691.577 350.239 691.354 349.6 690.956 349.149C690.558 348.692 690.019 348.463 689.339 348.463Z" fill="white"/>
<path d="M705.764 356.813C705.67 356.625 705.594 356.291 705.535 355.811C704.779 356.596 703.877 356.989 702.828 356.989C701.891 356.989 701.12 356.725 700.516 356.198C699.919 355.664 699.62 354.99 699.62 354.176C699.62 353.186 699.995 352.418 700.745 351.873C701.501 351.323 702.561 351.047 703.927 351.047H705.509V350.3C705.509 349.732 705.339 349.281 704.999 348.947C704.659 348.607 704.158 348.437 703.496 348.437C702.916 348.437 702.43 348.583 702.037 348.876C701.644 349.169 701.448 349.524 701.448 349.94H699.813C699.813 349.465 699.98 349.008 700.314 348.569C700.654 348.123 701.111 347.772 701.685 347.514C702.266 347.256 702.901 347.127 703.593 347.127C704.688 347.127 705.547 347.403 706.168 347.953C706.789 348.498 707.111 349.251 707.135 350.212V354.589C707.135 355.462 707.246 356.156 707.469 356.672V356.813H705.764ZM703.065 355.573C703.575 355.573 704.058 355.442 704.516 355.178C704.973 354.914 705.304 354.572 705.509 354.15V352.198H704.234C702.242 352.198 701.246 352.781 701.246 353.948C701.246 354.457 701.416 354.856 701.756 355.143C702.096 355.43 702.532 355.573 703.065 355.573Z" fill="white"/>
<path d="M711.366 347.303L711.418 348.498C712.145 347.584 713.094 347.127 714.266 347.127C716.276 347.127 717.289 348.261 717.307 350.529V356.813H715.681V350.52C715.675 349.834 715.517 349.327 715.206 348.999C714.902 348.671 714.424 348.507 713.774 348.507C713.246 348.507 712.784 348.648 712.385 348.929C711.987 349.21 711.676 349.579 711.453 350.036V356.813H709.827V347.303H711.366Z" fill="white"/>
<path d="M726.279 356.813H724.653V347.303H726.279V356.813ZM724.521 344.781C724.521 344.517 724.6 344.294 724.758 344.113C724.922 343.931 725.162 343.84 725.479 343.84C725.795 343.84 726.035 343.931 726.199 344.113C726.364 344.294 726.446 344.517 726.446 344.781C726.446 345.044 726.364 345.264 726.199 345.44C726.035 345.615 725.795 345.703 725.479 345.703C725.162 345.703 724.922 345.615 724.758 345.44C724.6 345.264 724.521 345.044 724.521 344.781Z" fill="white"/>
<path d="M730.571 347.303L730.624 348.498C731.35 347.584 732.3 347.127 733.471 347.127C735.481 347.127 736.495 348.261 736.512 350.529V356.813H734.886V350.52C734.881 349.834 734.722 349.327 734.412 348.999C734.107 348.671 733.63 348.507 732.979 348.507C732.452 348.507 731.989 348.648 731.591 348.929C731.192 349.21 730.882 349.579 730.659 350.036V356.813H729.033V347.303H730.571Z" fill="white"/>
<path d="M738.713 351.979C738.713 350.52 739.059 349.348 739.75 348.463C740.442 347.573 741.347 347.127 742.466 347.127C743.579 347.127 744.461 347.508 745.111 348.27V343.313H746.737V356.813H745.243L745.164 355.793C744.514 356.59 743.609 356.989 742.448 356.989C741.347 356.989 740.447 356.537 739.75 355.635C739.059 354.733 738.713 353.555 738.713 352.102V351.979ZM740.339 352.163C740.339 353.241 740.562 354.085 741.007 354.695C741.452 355.304 742.068 355.609 742.853 355.609C743.884 355.609 744.637 355.146 745.111 354.22V349.852C744.625 348.955 743.878 348.507 742.87 348.507C742.073 348.507 741.452 348.815 741.007 349.43C740.562 350.045 740.339 350.956 740.339 352.163Z" fill="white"/>
<path d="M753.359 356.989C752.07 356.989 751.021 356.567 750.213 355.723C749.404 354.873 749 353.74 749 352.322V352.023C749 351.079 749.178 350.239 749.536 349.5C749.899 348.756 750.403 348.176 751.047 347.76C751.698 347.338 752.401 347.127 753.157 347.127C754.393 347.127 755.354 347.534 756.04 348.349C756.725 349.163 757.068 350.329 757.068 351.847V352.524H750.626C750.649 353.461 750.922 354.22 751.443 354.8C751.97 355.374 752.638 355.661 753.447 355.661C754.021 355.661 754.507 355.544 754.906 355.31C755.304 355.075 755.653 354.765 755.952 354.378L756.945 355.152C756.148 356.376 754.953 356.989 753.359 356.989ZM753.157 348.463C752.501 348.463 751.95 348.703 751.505 349.184C751.059 349.658 750.784 350.326 750.678 351.188H755.442V351.065C755.395 350.239 755.172 349.6 754.774 349.149C754.376 348.692 753.837 348.463 753.157 348.463Z" fill="white"/>
<path d="M767.135 352.163C767.135 353.611 766.804 354.777 766.142 355.661C765.48 356.546 764.583 356.989 763.452 356.989C762.298 356.989 761.39 356.622 760.728 355.89V360.469H759.102V347.303H760.587L760.666 348.358C761.328 347.537 762.248 347.127 763.426 347.127C764.568 347.127 765.471 347.558 766.133 348.419C766.801 349.281 767.135 350.479 767.135 352.014V352.163ZM765.509 351.979C765.509 350.906 765.28 350.06 764.823 349.439C764.366 348.818 763.739 348.507 762.942 348.507C761.958 348.507 761.22 348.944 760.728 349.817V354.361C761.214 355.228 761.958 355.661 762.96 355.661C763.739 355.661 764.358 355.354 764.815 354.739C765.277 354.117 765.509 353.198 765.509 351.979Z" fill="white"/>
<path d="M773.299 356.989C772.01 356.989 770.961 356.567 770.153 355.723C769.344 354.873 768.94 353.74 768.94 352.322V352.023C768.94 351.079 769.119 350.239 769.476 349.5C769.839 348.756 770.343 348.176 770.988 347.76C771.638 347.338 772.341 347.127 773.097 347.127C774.334 347.127 775.294 347.534 775.98 348.349C776.666 349.163 777.008 350.329 777.008 351.847V352.524H770.566C770.589 353.461 770.862 354.22 771.383 354.8C771.911 355.374 772.579 355.661 773.387 355.661C773.961 355.661 774.448 355.544 774.846 355.31C775.245 355.075 775.593 354.765 775.892 354.378L776.885 355.152C776.088 356.376 774.893 356.989 773.299 356.989ZM773.097 348.463C772.441 348.463 771.89 348.703 771.445 349.184C771 349.658 770.724 350.326 770.619 351.188H775.382V351.065C775.335 350.239 775.113 349.6 774.714 349.149C774.316 348.692 773.777 348.463 773.097 348.463Z" fill="white"/>
<path d="M780.58 347.303L780.633 348.498C781.359 347.584 782.309 347.127 783.48 347.127C785.49 347.127 786.504 348.261 786.521 350.529V356.813H784.896V350.52C784.89 349.834 784.731 349.327 784.421 348.999C784.116 348.671 783.639 348.507 782.988 348.507C782.461 348.507 781.998 348.648 781.6 348.929C781.201 349.21 780.891 349.579 780.668 350.036V356.813H779.042V347.303H780.58Z" fill="white"/>
<path d="M788.722 351.979C788.722 350.52 789.068 349.348 789.759 348.463C790.451 347.573 791.356 347.127 792.475 347.127C793.588 347.127 794.47 347.508 795.121 348.27V343.313H796.747V356.813H795.252L795.173 355.793C794.523 356.59 793.618 356.989 792.457 356.989C791.356 356.989 790.456 356.537 789.759 355.635C789.068 354.733 788.722 353.555 788.722 352.102V351.979ZM790.348 352.163C790.348 353.241 790.571 354.085 791.016 354.695C791.461 355.304 792.077 355.609 792.862 355.609C793.893 355.609 794.646 355.146 795.121 354.22V349.852C794.634 348.955 793.887 348.507 792.879 348.507C792.082 348.507 791.461 348.815 791.016 349.43C790.571 350.045 790.348 350.956 790.348 352.163Z" fill="white"/>
<path d="M803.368 356.989C802.079 356.989 801.03 356.567 800.222 355.723C799.413 354.873 799.009 353.74 799.009 352.322V352.023C799.009 351.079 799.187 350.239 799.545 349.5C799.908 348.756 800.412 348.176 801.057 347.76C801.707 347.338 802.41 347.127 803.166 347.127C804.402 347.127 805.363 347.534 806.049 348.349C806.734 349.163 807.077 350.329 807.077 351.847V352.524H800.635C800.658 353.461 800.931 354.22 801.452 354.8C801.979 355.374 802.647 355.661 803.456 355.661C804.03 355.661 804.517 355.544 804.915 355.31C805.313 355.075 805.662 354.765 805.961 354.378L806.954 355.152C806.157 356.376 804.962 356.989 803.368 356.989ZM803.166 348.463C802.51 348.463 801.959 348.703 801.514 349.184C801.068 349.658 800.793 350.326 800.687 351.188H805.451V351.065C805.404 350.239 805.182 349.6 804.783 349.149C804.385 348.692 803.846 348.463 803.166 348.463Z" fill="white"/>
<path d="M810.649 347.303L810.702 348.498C811.428 347.584 812.377 347.127 813.549 347.127C815.559 347.127 816.573 348.261 816.59 350.529V356.813H814.964V350.52C814.958 349.834 814.8 349.327 814.49 348.999C814.185 348.671 813.707 348.507 813.057 348.507C812.53 348.507 812.067 348.648 811.668 348.929C811.27 349.21 810.959 349.579 810.737 350.036V356.813H809.111V347.303H810.649Z" fill="white"/>
<path d="M821.392 345V347.303H823.168V348.56H821.392V354.457C821.392 354.838 821.471 355.125 821.63 355.319C821.788 355.506 822.057 355.6 822.438 355.6C822.626 355.6 822.884 355.565 823.212 355.494V356.813C822.784 356.93 822.368 356.989 821.964 356.989C821.237 356.989 820.689 356.769 820.32 356.329C819.951 355.89 819.766 355.266 819.766 354.457V348.56H818.035V347.303H819.766V345H821.392Z" fill="white"/>
<path d="M831.594 356.813H829.969V343.313H831.594V356.813Z" fill="white"/>
<path d="M838.295 356.989C837.006 356.989 835.957 356.567 835.149 355.723C834.34 354.873 833.936 353.74 833.936 352.322V352.023C833.936 351.079 834.115 350.239 834.472 349.5C834.835 348.756 835.339 348.176 835.984 347.76C836.634 347.338 837.337 347.127 838.093 347.127C839.329 347.127 840.29 347.534 840.976 348.349C841.661 349.163 842.004 350.329 842.004 351.847V352.524H835.562C835.585 353.461 835.858 354.22 836.379 354.8C836.906 355.374 837.574 355.661 838.383 355.661C838.957 355.661 839.444 355.544 839.842 355.31C840.24 355.075 840.589 354.765 840.888 354.378L841.881 355.152C841.084 356.376 839.889 356.989 838.295 356.989ZM838.093 348.463C837.437 348.463 836.886 348.703 836.441 349.184C835.995 349.658 835.72 350.326 835.615 351.188H840.378V351.065C840.331 350.239 840.109 349.6 839.71 349.149C839.312 348.692 838.773 348.463 838.093 348.463Z" fill="white"/>
<path d="M849.909 356.813C849.815 356.625 849.739 356.291 849.68 355.811C848.924 356.596 848.022 356.989 846.973 356.989C846.036 356.989 845.265 356.725 844.662 356.198C844.064 355.664 843.765 354.99 843.765 354.176C843.765 353.186 844.14 352.418 844.89 351.873C845.646 351.323 846.707 351.047 848.072 351.047H849.654V350.3C849.654 349.732 849.484 349.281 849.144 348.947C848.804 348.607 848.303 348.437 847.641 348.437C847.061 348.437 846.575 348.583 846.182 348.876C845.79 349.169 845.593 349.524 845.593 349.94H843.959C843.959 349.465 844.126 349.008 844.46 348.569C844.799 348.123 845.256 347.772 845.831 347.514C846.411 347.256 847.047 347.127 847.738 347.127C848.834 347.127 849.692 347.403 850.313 347.953C850.934 348.498 851.256 349.251 851.28 350.212V354.589C851.28 355.462 851.391 356.156 851.614 356.672V356.813H849.909ZM847.211 355.573C847.72 355.573 848.204 355.442 848.661 355.178C849.118 354.914 849.449 354.572 849.654 354.15V352.198H848.38C846.387 352.198 845.391 352.781 845.391 353.948C845.391 354.457 845.561 354.856 845.901 355.143C846.241 355.43 846.677 355.573 847.211 355.573Z" fill="white"/>
<path d="M858.569 348.762C858.323 348.721 858.057 348.7 857.77 348.7C856.703 348.7 855.98 349.155 855.599 350.063V356.813H853.973V347.303H855.555L855.581 348.402C856.114 347.552 856.87 347.127 857.849 347.127C858.165 347.127 858.405 347.168 858.569 347.25V348.762Z" fill="white"/>
<path d="M861.755 347.303L861.807 348.498C862.534 347.584 863.483 347.127 864.655 347.127C866.665 347.127 867.678 348.261 867.696 350.529V356.813H866.07V350.52C866.064 349.834 865.906 349.327 865.595 348.999C865.291 348.671 864.813 348.507 864.163 348.507C863.635 348.507 863.172 348.648 862.774 348.929C862.376 349.21 862.065 349.579 861.842 350.036V356.813H860.216V347.303H861.755Z" fill="white"/>
<path d="M874.238 356.989C872.949 356.989 871.9 356.567 871.092 355.723C870.283 354.873 869.879 353.74 869.879 352.322V352.023C869.879 351.079 870.058 350.239 870.415 349.5C870.778 348.756 871.282 348.176 871.927 347.76C872.577 347.338 873.28 347.127 874.036 347.127C875.272 347.127 876.233 347.534 876.919 348.349C877.604 349.163 877.947 350.329 877.947 351.847V352.524H871.505C871.528 353.461 871.801 354.22 872.322 354.8C872.85 355.374 873.518 355.661 874.326 355.661C874.9 355.661 875.387 355.544 875.785 355.31C876.184 355.075 876.532 354.765 876.831 354.378L877.824 355.152C877.027 356.376 875.832 356.989 874.238 356.989ZM874.036 348.463C873.38 348.463 872.829 348.703 872.384 349.184C871.938 349.658 871.663 350.326 871.558 351.188H876.321V351.065C876.274 350.239 876.052 349.6 875.653 349.149C875.255 348.692 874.716 348.463 874.036 348.463Z" fill="white"/>
<path d="M884.578 348.762C884.332 348.721 884.065 348.7 883.778 348.7C882.711 348.7 881.988 349.155 881.607 350.063V356.813H879.981V347.303H881.563L881.589 348.402C882.123 347.552 882.878 347.127 883.857 347.127C884.173 347.127 884.414 347.168 884.578 347.25V348.762Z" fill="white"/>
<path d="M359.604 307.236C359.216 312.59 357.234 316.806 353.656 319.882C350.102 322.958 345.408 324.496 339.574 324.496C333.194 324.496 328.17 322.354 324.501 318.071C320.855 313.764 319.032 307.862 319.032 300.365V297.323C319.032 292.538 319.875 288.323 321.562 284.677C323.248 281.031 325.652 278.24 328.773 276.303C331.918 274.343 335.564 273.364 339.711 273.364C345.453 273.364 350.079 274.902 353.588 277.978C357.097 281.054 359.125 285.372 359.672 290.932H349.418C349.167 287.719 348.267 285.395 346.718 283.959C345.191 282.501 342.855 281.772 339.711 281.772C336.293 281.772 333.729 283.002 332.021 285.463C330.334 287.901 329.468 291.695 329.423 296.845V300.605C329.423 305.982 330.232 309.913 331.85 312.397C333.49 314.88 336.065 316.122 339.574 316.122C342.742 316.122 345.1 315.405 346.649 313.969C348.222 312.511 349.122 310.266 349.35 307.236H359.604Z" fill="white"/>
<path d="M383.112 323.813H373.2V271.313H383.112V323.813Z" fill="white"/>
<path d="M419.712 323.813C419.256 322.924 418.926 321.819 418.721 320.497C416.328 323.163 413.218 324.496 409.39 324.496C405.767 324.496 402.759 323.448 400.366 321.352C397.996 319.255 396.812 316.612 396.812 313.422C396.812 309.503 398.258 306.495 401.152 304.399C404.069 302.302 408.273 301.243 413.765 301.22H418.311V299.101C418.311 297.392 417.866 296.025 416.978 294.999C416.112 293.974 414.733 293.461 412.842 293.461C411.178 293.461 409.868 293.86 408.911 294.657C407.977 295.455 407.51 296.549 407.51 297.939H397.632C397.632 295.797 398.293 293.814 399.614 291.991C400.936 290.169 402.804 288.744 405.22 287.719C407.635 286.671 410.347 286.147 413.354 286.147C417.912 286.147 421.523 287.297 424.189 289.599C426.878 291.878 428.223 295.09 428.223 299.238V315.268C428.245 318.777 428.735 321.432 429.692 323.232V323.813H419.712ZM411.543 316.943C413.001 316.943 414.346 316.624 415.576 315.986C416.807 315.325 417.718 314.448 418.311 313.354V306.996H414.619C409.674 306.996 407.043 308.705 406.724 312.123L406.689 312.704C406.689 313.935 407.122 314.949 407.988 315.746C408.854 316.544 410.039 316.943 411.543 316.943Z" fill="white"/>
<path d="M462.84 313.593C462.84 312.385 462.236 311.44 461.028 310.756C459.843 310.05 457.929 309.423 455.286 308.876C446.491 307.031 442.093 303.294 442.093 297.665C442.093 294.384 443.449 291.65 446.16 289.462C448.895 287.252 452.461 286.147 456.858 286.147C461.552 286.147 465.301 287.252 468.104 289.462C470.929 291.672 472.342 294.544 472.342 298.075H462.464C462.464 296.663 462.008 295.501 461.097 294.589C460.185 293.655 458.761 293.188 456.824 293.188C455.161 293.188 453.873 293.564 452.962 294.316C452.05 295.068 451.595 296.025 451.595 297.187C451.595 298.281 452.107 299.169 453.133 299.853C454.181 300.514 455.936 301.095 458.396 301.596C460.857 302.074 462.931 302.621 464.617 303.237C469.835 305.151 472.444 308.466 472.444 313.183C472.444 316.555 470.997 319.29 468.104 321.386C465.21 323.46 461.473 324.496 456.893 324.496C453.794 324.496 451.036 323.949 448.621 322.856C446.229 321.739 444.349 320.224 442.981 318.31C441.614 316.373 440.931 314.288 440.931 312.055H450.296C450.387 313.809 451.036 315.154 452.244 316.088C453.452 317.022 455.07 317.49 457.098 317.49C458.989 317.49 460.413 317.136 461.37 316.43C462.35 315.701 462.84 314.755 462.84 313.593Z" fill="white"/>
<path d="M505.865 313.593C505.865 312.385 505.261 311.44 504.054 310.756C502.869 310.05 500.955 309.423 498.312 308.876C489.516 307.031 485.118 303.294 485.118 297.665C485.118 294.384 486.474 291.65 489.186 289.462C491.92 287.252 495.486 286.147 499.884 286.147C504.578 286.147 508.326 287.252 511.129 289.462C513.954 291.672 515.367 294.544 515.367 298.075H505.489C505.489 296.663 505.034 295.501 504.122 294.589C503.211 293.655 501.786 293.188 499.85 293.188C498.186 293.188 496.899 293.564 495.987 294.316C495.076 295.068 494.62 296.025 494.62 297.187C494.62 298.281 495.133 299.169 496.158 299.853C497.206 300.514 498.961 301.095 501.422 301.596C503.883 302.074 505.956 302.621 507.643 303.237C512.861 305.151 515.47 308.466 515.47 313.183C515.47 316.555 514.023 319.29 511.129 321.386C508.235 323.46 504.498 324.496 499.918 324.496C496.819 324.496 494.062 323.949 491.646 322.856C489.254 321.739 487.374 320.224 486.007 318.31C484.64 316.373 483.956 314.288 483.956 312.055H493.321C493.412 313.809 494.062 315.154 495.27 316.088C496.477 317.022 498.095 317.49 500.123 317.49C502.014 317.49 503.438 317.136 504.396 316.43C505.375 315.701 505.865 314.755 505.865 313.593Z" fill="white"/>
<path d="M566.972 282.353H551.728V323.813H541.474V282.353H526.435V274.047H566.972V282.353Z" fill="white"/>
<path d="M593.146 324.496C587.723 324.496 583.303 322.833 579.885 319.506C576.49 316.179 574.792 311.747 574.792 306.21V305.253C574.792 301.539 575.51 298.224 576.945 295.307C578.381 292.367 580.409 290.112 583.029 288.539C585.673 286.944 588.68 286.147 592.053 286.147C597.111 286.147 601.088 287.742 603.981 290.932C606.898 294.122 608.356 298.645 608.356 304.501V308.534H584.807C585.126 310.95 586.083 312.887 587.678 314.345C589.296 315.803 591.335 316.532 593.796 316.532C597.601 316.532 600.575 315.154 602.717 312.397L607.57 317.831C606.089 319.928 604.084 321.568 601.555 322.753C599.025 323.915 596.223 324.496 593.146 324.496ZM592.019 294.145C590.059 294.145 588.464 294.806 587.233 296.127C586.026 297.449 585.251 299.34 584.909 301.801H598.649V301.015C598.604 298.827 598.011 297.141 596.872 295.956C595.733 294.749 594.115 294.145 592.019 294.145Z" fill="white"/>
<path d="M636.377 316.532C638.2 316.532 639.681 316.031 640.82 315.029C641.96 314.026 642.552 312.693 642.598 311.03H651.86C651.838 313.536 651.154 315.837 649.81 317.934C648.465 320.007 646.619 321.625 644.272 322.787C641.948 323.927 639.373 324.496 636.548 324.496C631.261 324.496 627.091 322.822 624.038 319.472C620.985 316.1 619.458 311.451 619.458 305.527V304.877C619.458 299.181 620.973 294.635 624.004 291.24C627.035 287.844 631.193 286.147 636.479 286.147C641.105 286.147 644.808 287.468 647.588 290.112C650.391 292.732 651.815 296.23 651.86 300.605H642.598C642.552 298.691 641.96 297.141 640.82 295.956C639.681 294.749 638.177 294.145 636.309 294.145C634.007 294.145 632.264 294.988 631.079 296.674C629.917 298.337 629.336 301.049 629.336 304.809V305.834C629.336 309.64 629.917 312.374 631.079 314.037C632.241 315.701 634.007 316.532 636.377 316.532Z" fill="white"/>
<path d="M674.139 290.864C676.759 287.719 680.052 286.147 684.017 286.147C692.037 286.147 696.105 290.807 696.219 300.126V323.813H686.341V300.4C686.341 298.281 685.885 296.72 684.974 295.717C684.062 294.692 682.547 294.179 680.428 294.179C677.534 294.179 675.438 295.295 674.139 297.529V323.813H664.261V271.313H674.139V290.864Z" fill="white"/>
<defs>
<clipPath id="clip0">
<rect width="38.7879" height="33.9226" fill="white" transform="translate(830.133 281.307)"/>
</clipPath>
</defs>
</svg>
