<svg width="569" height="91" viewBox="0 0 569 91" fill="none" xmlns="http://www.w3.org/2000/svg">
<g clip-path="url(#clip0)">
<path d="M550.493 38.4323L540.922 25.063C540.114 23.9335 539.686 22.6294 539.686 21.2973L539.699 11.3182L527.429 11.3074L527.417 21.2786C527.415 22.6122 526.983 23.9194 526.171 25.0489L516.567 38.4012C516.049 39.121 515.788 39.9428 515.788 40.7647C515.788 41.5016 515.997 42.2417 516.419 42.9101C517.313 44.3262 519.013 45.205 520.862 45.2066L546.183 45.23H546.184C546.253 45.23 546.288 45.2268 546.289 45.2268L546.288 45.2237C548.095 45.1925 549.75 44.3278 550.63 42.9428V42.9412C551.055 42.2713 551.266 41.5289 551.266 40.7888C551.266 39.9701 551.007 39.1506 550.493 38.4323ZM548.039 41.6862C547.666 42.2744 546.958 42.6405 546.189 42.6389C546.181 42.6389 546.179 42.6405 546.174 42.6405L520.864 42.6163C520.095 42.6155 519.384 42.2487 519.014 41.6589C518.836 41.3785 518.75 41.0731 518.75 40.7646C518.75 40.421 518.858 40.0807 519.074 39.7799L528.677 26.4286C529.787 24.8861 530.375 23.103 530.378 21.2801L530.387 13.8999L536.734 13.9061L536.724 21.288V21.2911V21.2973C536.724 23.1155 537.309 24.8955 538.412 26.4372L547.982 39.8064C548.197 40.1056 548.304 40.4469 548.305 40.7888C548.304 41.0981 548.217 41.405 548.039 41.6862Z" fill="white"/>
<path d="M538.651 30.6073C538.542 30.4538 538.35 30.3611 538.144 30.3611L528.936 30.3525C528.729 30.3525 528.537 30.4444 528.428 30.5979L521.822 39.7786C521.707 39.9406 521.699 40.1447 521.805 40.3122C521.91 40.4797 522.112 40.5825 522.33 40.5825L544.724 40.6036C544.942 40.6043 545.143 40.5015 545.249 40.3341C545.355 40.1666 545.348 39.9632 545.232 39.802L538.651 30.6073Z" fill="white"/>
</g>
<path d="M441.309 38.6025H453.839V44.1396H434.11V14.2803H441.309V38.6025Z" fill="white"/>
<path d="M469.056 44.1396C468.81 43.6885 468.591 43.0254 468.399 42.1504C467.128 43.75 465.351 44.5498 463.067 44.5498C460.976 44.5498 459.198 43.9209 457.735 42.6631C456.272 41.3916 455.541 39.7988 455.541 37.8848C455.541 35.4785 456.43 33.6602 458.207 32.4297C459.984 31.1992 462.568 30.584 465.959 30.584H468.092V29.415C468.092 27.3779 467.21 26.3594 465.446 26.3594C463.806 26.3594 462.985 27.166 462.985 28.7793H456.074C456.074 26.6328 456.983 24.8896 458.802 23.5498C460.634 22.21 462.965 21.54 465.795 21.54C468.625 21.54 470.86 22.2305 472.501 23.6113C474.142 24.9922 474.982 26.8857 475.023 29.292V39.1152C475.051 41.1523 475.365 42.7109 475.967 43.791V44.1396H469.056ZM464.729 39.6279C465.59 39.6279 466.301 39.4434 466.861 39.0742C467.436 38.7051 467.846 38.2881 468.092 37.8232V34.2754H466.082C463.676 34.2754 462.473 35.3555 462.473 37.5156C462.473 38.1445 462.685 38.6572 463.108 39.0537C463.532 39.4365 464.072 39.6279 464.729 39.6279Z" fill="white"/>
<path d="M499.469 33.2295C499.469 36.8662 498.717 39.6621 497.213 41.6172C495.709 43.5723 493.59 44.5498 490.855 44.5498C488.6 44.5498 486.781 43.6543 485.4 41.8633L485.113 44.1396H478.92V12.6396H485.831V23.7344C487.116 22.2715 488.777 21.54 490.814 21.54C493.576 21.54 495.709 22.5312 497.213 24.5137C498.717 26.4961 499.469 29.2852 499.469 32.8809V33.2295ZM492.537 32.7988C492.537 30.666 492.25 29.1484 491.676 28.2461C491.115 27.3301 490.247 26.8721 489.071 26.8721C487.513 26.8721 486.433 27.4668 485.831 28.6562V37.4746C486.419 38.6504 487.513 39.2383 489.112 39.2383C490.739 39.2383 491.771 38.4453 492.209 36.8594C492.428 36.0801 492.537 34.7266 492.537 32.7988Z" fill="white"/>
<path fill-rule="evenodd" clip-rule="evenodd" d="M560.201 4H404.594C402.385 4 400.594 5.79086 400.594 8.00001V51.6215C400.594 53.8306 402.385 55.6215 404.594 55.6215H560.201C562.41 55.6215 564.201 53.8306 564.201 51.6215V8C564.201 5.79086 562.41 4 560.201 4ZM404.594 0C400.175 0 396.594 3.58173 396.594 8.00001V51.6215C396.594 56.0398 400.175 59.6215 404.594 59.6215H560.201C564.619 59.6215 568.201 56.0398 568.201 51.6215V8C568.201 3.58172 564.619 0 560.201 0H404.594Z" fill="white"/>
<path d="M4.23633 85.6614C4.81641 85.6614 5.32324 85.4856 5.75684 85.134C6.19043 84.7825 6.43066 84.343 6.47754 83.8157H8.01562C7.98633 84.3606 7.79883 84.8792 7.45312 85.3713C7.10742 85.8635 6.64453 86.2561 6.06445 86.5491C5.49023 86.842 4.88086 86.9885 4.23633 86.9885C2.94141 86.9885 1.91016 86.5579 1.14258 85.6965C0.380859 84.8293 0 83.6458 0 82.1458V81.8733C0 80.9475 0.169922 80.1243 0.509766 79.4036C0.849609 78.6829 1.33594 78.1233 1.96875 77.7249C2.60742 77.3264 3.36035 77.1272 4.22754 77.1272C5.29395 77.1272 6.17871 77.4465 6.88184 78.0852C7.59082 78.7239 7.96875 79.553 8.01562 80.5725H6.47754C6.43066 79.9573 6.19629 79.4534 5.77441 79.0608C5.3584 78.6624 4.84277 78.4631 4.22754 78.4631C3.40137 78.4631 2.75977 78.762 2.30273 79.3596C1.85156 79.9514 1.62598 80.8098 1.62598 81.9348V82.2424C1.62598 83.3381 1.85156 84.1819 2.30273 84.7737C2.75391 85.3655 3.39844 85.6614 4.23633 85.6614Z" fill="white"/>
<path d="M14.5844 78.762C14.3383 78.7209 14.0717 78.7004 13.7846 78.7004C12.7182 78.7004 11.9946 79.1545 11.6137 80.0627V86.8127H9.98775V77.303H11.5698L11.5961 78.4016C12.1294 77.552 12.8852 77.1272 13.8637 77.1272C14.1801 77.1272 14.4204 77.1682 14.5844 77.2502V78.762Z" fill="white"/>
<path d="M20.0019 86.9885C18.7128 86.9885 17.664 86.5667 16.8554 85.7229C16.0468 84.8733 15.6425 83.7395 15.6425 82.3215V82.0227C15.6425 81.0793 15.8212 80.2385 16.1786 79.5002C16.5419 78.7561 17.0458 78.176 17.6903 77.76C18.3407 77.3381 19.0439 77.1272 19.7997 77.1272C21.036 77.1272 21.997 77.5344 22.6825 78.3489C23.3681 79.1633 23.7109 80.3293 23.7109 81.8469V82.5237H17.2685C17.2919 83.4612 17.5644 84.22 18.0859 84.8C18.6132 85.3743 19.2812 85.6614 20.0898 85.6614C20.664 85.6614 21.1503 85.5442 21.5487 85.3098C21.9472 85.0754 22.2958 84.7649 22.5946 84.3782L23.5878 85.1516C22.7909 86.3762 21.5956 86.9885 20.0019 86.9885ZM19.7997 78.4631C19.1435 78.4631 18.5927 78.7034 18.1474 79.1838C17.7021 79.6584 17.4267 80.3264 17.3212 81.1877H22.0849V81.0647C22.038 80.2385 21.8153 79.5999 21.4169 79.1487C21.0185 78.6917 20.4794 78.4631 19.7997 78.4631Z" fill="white"/>
<path d="M31.6156 86.8127C31.5218 86.6252 31.4457 86.2913 31.3871 85.8108C30.6312 86.5959 29.7289 86.9885 28.68 86.9885C27.7425 86.9885 26.972 86.7249 26.3685 86.1975C25.7709 85.6643 25.472 84.9905 25.472 84.176C25.472 83.1858 25.847 82.4182 26.597 81.8733C27.3529 81.3225 28.4134 81.0471 29.7787 81.0471H31.3607V80.3C31.3607 79.7317 31.1908 79.2805 30.8509 78.9465C30.5111 78.6067 30.0101 78.4368 29.348 78.4368C28.7679 78.4368 28.2816 78.5833 27.889 78.8762C27.4965 79.1692 27.3002 79.5237 27.3002 79.9397H25.6654C25.6654 79.4651 25.8324 79.0081 26.1664 78.5686C26.5062 78.1233 26.9632 77.7717 27.5375 77.5139C28.1175 77.2561 28.7533 77.1272 29.4447 77.1272C30.5404 77.1272 31.3988 77.4026 32.0199 77.9534C32.641 78.4983 32.9632 79.2512 32.9867 80.2122V84.5891C32.9867 85.4622 33.098 86.1565 33.3207 86.6721V86.8127H31.6156ZM28.9174 85.5735C29.4271 85.5735 29.9105 85.4417 30.3675 85.178C30.8246 84.9143 31.1556 84.5715 31.3607 84.1497V82.1985H30.0863C28.0941 82.1985 27.098 82.7815 27.098 83.9475C27.098 84.4573 27.2679 84.8557 27.6078 85.1428C27.9476 85.4299 28.3841 85.5735 28.9174 85.5735Z" fill="white"/>
<path d="M37.8856 75.0002V77.303H39.661V78.5598H37.8856V84.4573C37.8856 84.8381 37.9647 85.1252 38.1229 85.3186C38.2811 85.5061 38.5506 85.5999 38.9315 85.5999C39.119 85.5999 39.3768 85.5647 39.7049 85.4944V86.8127C39.2772 86.9299 38.8612 86.9885 38.4569 86.9885C37.7303 86.9885 37.1824 86.7688 36.8133 86.3293C36.4442 85.8899 36.2596 85.2659 36.2596 84.4573V78.5598H34.5281V77.303H36.2596V75.0002H37.8856Z" fill="white"/>
<path d="M45.6585 86.9885C44.3694 86.9885 43.3206 86.5667 42.512 85.7229C41.7034 84.8733 41.2991 83.7395 41.2991 82.3215V82.0227C41.2991 81.0793 41.4778 80.2385 41.8352 79.5002C42.1985 78.7561 42.7024 78.176 43.347 77.76C43.9973 77.3381 44.7005 77.1272 45.4563 77.1272C46.6927 77.1272 47.6536 77.5344 48.3391 78.3489C49.0247 79.1633 49.3675 80.3293 49.3675 81.8469V82.5237H42.9251C42.9485 83.4612 43.221 84.22 43.7425 84.8C44.2698 85.3743 44.9378 85.6614 45.7464 85.6614C46.3206 85.6614 46.8069 85.5442 47.2054 85.3098C47.6038 85.0754 47.9524 84.7649 48.2513 84.3782L49.2444 85.1516C48.4475 86.3762 47.2522 86.9885 45.6585 86.9885ZM45.4563 78.4631C44.8001 78.4631 44.2493 78.7034 43.804 79.1838C43.3587 79.6584 43.0833 80.3264 42.9778 81.1877H47.7415V81.0647C47.6946 80.2385 47.472 79.5999 47.0735 79.1487C46.6751 78.6917 46.136 78.4631 45.4563 78.4631Z" fill="white"/>
<path d="M58.216 75.0002V77.303H59.9914V78.5598H58.216V84.4573C58.216 84.8381 58.2951 85.1252 58.4533 85.3186C58.6115 85.5061 58.881 85.5999 59.2619 85.5999C59.4494 85.5999 59.7072 85.5647 60.0353 85.4944V86.8127C59.6076 86.9299 59.1916 86.9885 58.7873 86.9885C58.0607 86.9885 57.5129 86.7688 57.1437 86.3293C56.7746 85.8899 56.59 85.2659 56.59 84.4573V78.5598H54.8586V77.303H56.59V75.0002H58.216Z" fill="white"/>
<path d="M63.6686 78.4543C64.3893 77.5696 65.3268 77.1272 66.4811 77.1272C68.4909 77.1272 69.5045 78.261 69.5221 80.5286V86.8127H67.8961V80.5198C67.8903 79.8342 67.7321 79.3274 67.4215 78.9993C67.1168 78.6711 66.6393 78.5071 65.9889 78.5071C65.4616 78.5071 64.9987 78.6477 64.6002 78.929C64.2018 79.2102 63.8913 79.5793 63.6686 80.0364V86.8127H62.0426V73.3127H63.6686V78.4543Z" fill="white"/>
<path d="M76.047 86.9885C74.7579 86.9885 73.7091 86.5667 72.9005 85.7229C72.0919 84.8733 71.6876 83.7395 71.6876 82.3215V82.0227C71.6876 81.0793 71.8663 80.2385 72.2237 79.5002C72.587 78.7561 73.0909 78.176 73.7355 77.76C74.3858 77.3381 75.089 77.1272 75.8448 77.1272C77.0812 77.1272 78.0421 77.5344 78.7276 78.3489C79.4132 79.1633 79.756 80.3293 79.756 81.8469V82.5237H73.3136C73.337 83.4612 73.6095 84.22 74.131 84.8C74.6583 85.3743 75.3263 85.6614 76.1349 85.6614C76.7091 85.6614 77.1954 85.5442 77.5938 85.3098C77.9923 85.0754 78.3409 84.7649 78.6397 84.3782L79.6329 85.1516C78.836 86.3762 77.6407 86.9885 76.047 86.9885ZM75.8448 78.4631C75.1886 78.4631 74.6378 78.7034 74.1925 79.1838C73.7472 79.6584 73.4718 80.3264 73.3663 81.1877H78.13V81.0647C78.0831 80.2385 77.8605 79.5999 77.462 79.1487C77.0636 78.6917 76.5245 78.4631 75.8448 78.4631Z" fill="white"/>
<path d="M88.1651 86.8127H86.5391V73.3127H88.1651V86.8127Z" fill="white"/>
<path d="M94.8657 86.9885C93.5766 86.9885 92.5278 86.5667 91.7192 85.7229C90.9106 84.8733 90.5063 83.7395 90.5063 82.3215V82.0227C90.5063 81.0793 90.685 80.2385 91.0424 79.5002C91.4057 78.7561 91.9096 78.176 92.5542 77.76C93.2046 77.3381 93.9077 77.1272 94.6635 77.1272C95.8999 77.1272 96.8608 77.5344 97.5464 78.3489C98.2319 79.1633 98.5747 80.3293 98.5747 81.8469V82.5237H92.1323C92.1557 83.4612 92.4282 84.22 92.9497 84.8C93.477 85.3743 94.145 85.6614 94.9536 85.6614C95.5278 85.6614 96.0141 85.5442 96.4126 85.3098C96.811 85.0754 97.1596 84.7649 97.4585 84.3782L98.4516 85.1516C97.6548 86.3762 96.4594 86.9885 94.8657 86.9885ZM94.6635 78.4631C94.0073 78.4631 93.4565 78.7034 93.0112 79.1838C92.5659 79.6584 92.2905 80.3264 92.185 81.1877H96.9487V81.0647C96.9018 80.2385 96.6792 79.5999 96.2807 79.1487C95.8823 78.6917 95.3432 78.4631 94.6635 78.4631Z" fill="white"/>
<path d="M106.479 86.8127C106.386 86.6252 106.31 86.2913 106.251 85.8108C105.495 86.5959 104.593 86.9885 103.544 86.9885C102.606 86.9885 101.836 86.7249 101.232 86.1975C100.635 85.6643 100.336 84.9905 100.336 84.176C100.336 83.1858 100.711 82.4182 101.461 81.8733C102.217 81.3225 103.277 81.0471 104.643 81.0471H106.225V80.3C106.225 79.7317 106.055 79.2805 105.715 78.9465C105.375 78.6067 104.874 78.4368 104.212 78.4368C103.632 78.4368 103.145 78.5833 102.753 78.8762C102.36 79.1692 102.164 79.5237 102.164 79.9397H100.529C100.529 79.4651 100.696 79.0081 101.03 78.5686C101.37 78.1233 101.827 77.7717 102.401 77.5139C102.981 77.2561 103.617 77.1272 104.309 77.1272C105.404 77.1272 106.263 77.4026 106.884 77.9534C107.505 78.4983 107.827 79.2512 107.851 80.2122V84.5891C107.851 85.4622 107.962 86.1565 108.185 86.6721V86.8127H106.479ZM103.781 85.5735C104.291 85.5735 104.774 85.4417 105.231 85.178C105.688 84.9143 106.019 84.5715 106.225 84.1497V82.1985H104.95C102.958 82.1985 101.962 82.7815 101.962 83.9475C101.962 84.4573 102.132 84.8557 102.472 85.1428C102.811 85.4299 103.248 85.5735 103.781 85.5735Z" fill="white"/>
<path d="M115.14 78.762C114.894 78.7209 114.627 78.7004 114.34 78.7004C113.274 78.7004 112.55 79.1545 112.169 80.0627V86.8127H110.543V77.303H112.125L112.152 78.4016C112.685 77.552 113.441 77.1272 114.419 77.1272C114.736 77.1272 114.976 77.1682 115.14 77.2502V78.762Z" fill="white"/>
<path d="M118.325 77.303L118.378 78.4983C119.104 77.5842 120.054 77.1272 121.225 77.1272C123.235 77.1272 124.249 78.261 124.266 80.5286V86.8127H122.64V80.5198C122.635 79.8342 122.476 79.3274 122.166 78.9993C121.861 78.6711 121.384 78.5071 120.733 78.5071C120.206 78.5071 119.743 78.6477 119.345 78.929C118.946 79.2102 118.636 79.5793 118.413 80.0364V86.8127H116.787V77.303H118.325Z" fill="white"/>
<path d="M128.629 86.8127H127.003V77.303H128.629V86.8127ZM126.871 74.7805C126.871 74.5168 126.95 74.2942 127.109 74.1125C127.273 73.9309 127.513 73.8401 127.829 73.8401C128.146 73.8401 128.386 73.9309 128.55 74.1125C128.714 74.2942 128.796 74.5168 128.796 74.7805C128.796 75.0442 128.714 75.2639 128.55 75.4397C128.386 75.6155 128.146 75.7034 127.829 75.7034C127.513 75.7034 127.273 75.6155 127.109 75.4397C126.95 75.2639 126.871 75.0442 126.871 74.7805Z" fill="white"/>
<path d="M132.922 77.303L132.974 78.4983C133.701 77.5842 134.65 77.1272 135.822 77.1272C137.832 77.1272 138.845 78.261 138.863 80.5286V86.8127H137.237V80.5198C137.231 79.8342 137.073 79.3274 136.762 78.9993C136.458 78.6711 135.98 78.5071 135.33 78.5071C134.802 78.5071 134.34 78.6477 133.941 78.929C133.543 79.2102 133.232 79.5793 133.01 80.0364V86.8127H131.384V77.303H132.922Z" fill="white"/>
<path d="M141.072 81.9788C141.072 80.4963 141.415 79.3186 142.101 78.4456C142.786 77.5667 143.695 77.1272 144.825 77.1272C145.986 77.1272 146.891 77.5374 147.541 78.3577L147.62 77.303H149.106V86.5842C149.106 87.8147 148.739 88.7844 148.007 89.4934C147.28 90.2024 146.302 90.5569 145.071 90.5569C144.386 90.5569 143.715 90.4104 143.059 90.1174C142.403 89.8245 141.902 89.4231 141.556 88.9133L142.4 87.9377C143.097 88.7991 143.949 89.2297 144.957 89.2297C145.748 89.2297 146.363 89.0071 146.803 88.5618C147.248 88.1165 147.471 87.4895 147.471 86.6809V85.8635C146.821 86.6135 145.933 86.9885 144.808 86.9885C143.695 86.9885 142.792 86.5403 142.101 85.6438C141.415 84.7473 141.072 83.5256 141.072 81.9788ZM142.707 82.1633C142.707 83.2356 142.927 84.0793 143.366 84.6946C143.806 85.304 144.421 85.6086 145.212 85.6086C146.238 85.6086 146.99 85.1428 147.471 84.2112V79.8694C146.973 78.9612 146.226 78.5071 145.23 78.5071C144.439 78.5071 143.821 78.8147 143.375 79.4299C142.93 80.0452 142.707 80.9563 142.707 82.1633Z" fill="white"/>
<path d="M158.086 86.8127H156.46V77.303H158.086V86.8127ZM156.328 74.7805C156.328 74.5168 156.407 74.2942 156.566 74.1125C156.73 73.9309 156.97 73.8401 157.286 73.8401C157.603 73.8401 157.843 73.9309 158.007 74.1125C158.171 74.2942 158.253 74.5168 158.253 74.7805C158.253 75.0442 158.171 75.2639 158.007 75.4397C157.843 75.6155 157.603 75.7034 157.286 75.7034C156.97 75.7034 156.73 75.6155 156.566 75.4397C156.407 75.2639 156.328 75.0442 156.328 74.7805Z" fill="white"/>
<path d="M162.378 77.303L162.431 78.4983C163.158 77.5842 164.107 77.1272 165.279 77.1272C167.289 77.1272 168.302 78.261 168.32 80.5286V86.8127H166.694V80.5198C166.688 79.8342 166.53 79.3274 166.219 78.9993C165.915 78.6711 165.437 78.5071 164.787 78.5071C164.259 78.5071 163.796 78.6477 163.398 78.929C163 79.2102 162.689 79.5793 162.466 80.0364V86.8127H160.84V77.303H162.378Z" fill="white"/>
<path d="M172.454 77.303L172.507 78.4983C173.233 77.5842 174.183 77.1272 175.355 77.1272C177.364 77.1272 178.378 78.261 178.396 80.5286V86.8127H176.77V80.5198C176.764 79.8342 176.605 79.3274 176.295 78.9993C175.99 78.6711 175.513 78.5071 174.862 78.5071C174.335 78.5071 173.872 78.6477 173.474 78.929C173.075 79.2102 172.765 79.5793 172.542 80.0364V86.8127H170.916V77.303H172.454Z" fill="white"/>
<path d="M180.561 81.97C180.561 81.0383 180.743 80.2004 181.106 79.4563C181.475 78.7122 181.985 78.1379 182.635 77.7336C183.291 77.3293 184.039 77.1272 184.876 77.1272C186.171 77.1272 187.217 77.5754 188.014 78.4719C188.817 79.3684 189.218 80.5608 189.218 82.0491V82.1633C189.218 83.0891 189.04 83.9211 188.682 84.6594C188.331 85.3918 187.824 85.9631 187.162 86.3733C186.505 86.7834 185.749 86.9885 184.894 86.9885C183.605 86.9885 182.559 86.5403 181.756 85.6438C180.959 84.7473 180.561 83.5608 180.561 82.0842V81.97ZM182.196 82.1633C182.196 83.218 182.439 84.0647 182.925 84.7034C183.417 85.342 184.074 85.6614 184.894 85.6614C185.72 85.6614 186.376 85.3391 186.863 84.6946C187.349 84.0442 187.592 83.136 187.592 81.97C187.592 80.927 187.343 80.0833 186.845 79.4387C186.353 78.7883 185.697 78.4631 184.876 78.4631C184.074 78.4631 183.426 78.7825 182.934 79.4211C182.442 80.0598 182.196 80.9739 182.196 82.1633Z" fill="white"/>
<path d="M194.398 84.6067L196.754 77.303H198.415L195.005 86.8127H193.766L190.32 77.303H191.981L194.398 84.6067Z" fill="white"/>
<path d="M205.854 86.8127C205.76 86.6252 205.684 86.2913 205.625 85.8108C204.87 86.5959 203.967 86.9885 202.918 86.9885C201.981 86.9885 201.21 86.7249 200.607 86.1975C200.009 85.6643 199.71 84.9905 199.71 84.176C199.71 83.1858 200.085 82.4182 200.835 81.8733C201.591 81.3225 202.652 81.0471 204.017 81.0471H205.599V80.3C205.599 79.7317 205.429 79.2805 205.089 78.9465C204.749 78.6067 204.248 78.4368 203.586 78.4368C203.006 78.4368 202.52 78.5833 202.127 78.8762C201.735 79.1692 201.538 79.5237 201.538 79.9397H199.904C199.904 79.4651 200.071 79.0081 200.405 78.5686C200.745 78.1233 201.202 77.7717 201.776 77.5139C202.356 77.2561 202.992 77.1272 203.683 77.1272C204.779 77.1272 205.637 77.4026 206.258 77.9534C206.879 78.4983 207.202 79.2512 207.225 80.2122V84.5891C207.225 85.4622 207.336 86.1565 207.559 86.6721V86.8127H205.854ZM203.156 85.5735C203.665 85.5735 204.149 85.4417 204.606 85.178C205.063 84.9143 205.394 84.5715 205.599 84.1497V82.1985H204.325C202.332 82.1985 201.336 82.7815 201.336 83.9475C201.336 84.4573 201.506 84.8557 201.846 85.1428C202.186 85.4299 202.622 85.5735 203.156 85.5735Z" fill="white"/>
<path d="M212.124 75.0002V77.303H213.899V78.5598H212.124V84.4573C212.124 84.8381 212.203 85.1252 212.361 85.3186C212.519 85.5061 212.789 85.5999 213.17 85.5999C213.357 85.5999 213.615 85.5647 213.943 85.4944V86.8127C213.515 86.9299 213.099 86.9885 212.695 86.9885C211.969 86.9885 211.421 86.7688 211.052 86.3293C210.682 85.8899 210.498 85.2659 210.498 84.4573V78.5598H208.766V77.303H210.498V75.0002H212.124Z" fill="white"/>
<path d="M217.717 86.8127H216.091V77.303H217.717V86.8127ZM215.959 74.7805C215.959 74.5168 216.038 74.2942 216.197 74.1125C216.361 73.9309 216.601 73.8401 216.917 73.8401C217.234 73.8401 217.474 73.9309 217.638 74.1125C217.802 74.2942 217.884 74.5168 217.884 74.7805C217.884 75.0442 217.802 75.2639 217.638 75.4397C217.474 75.6155 217.234 75.7034 216.917 75.7034C216.601 75.7034 216.361 75.6155 216.197 75.4397C216.038 75.2639 215.959 75.0442 215.959 74.7805Z" fill="white"/>
<path d="M220.041 81.97C220.041 81.0383 220.222 80.2004 220.586 79.4563C220.955 78.7122 221.465 78.1379 222.115 77.7336C222.771 77.3293 223.518 77.1272 224.356 77.1272C225.651 77.1272 226.697 77.5754 227.494 78.4719C228.297 79.3684 228.698 80.5608 228.698 82.0491V82.1633C228.698 83.0891 228.519 83.9211 228.162 84.6594C227.81 85.3918 227.303 85.9631 226.641 86.3733C225.985 86.7834 225.229 86.9885 224.374 86.9885C223.085 86.9885 222.039 86.5403 221.236 85.6438C220.439 84.7473 220.041 83.5608 220.041 82.0842V81.97ZM221.676 82.1633C221.676 83.218 221.919 84.0647 222.405 84.7034C222.897 85.342 223.553 85.6614 224.374 85.6614C225.2 85.6614 225.856 85.3391 226.343 84.6946C226.829 84.0442 227.072 83.136 227.072 81.97C227.072 80.927 226.823 80.0833 226.325 79.4387C225.833 78.7883 225.177 78.4631 224.356 78.4631C223.553 78.4631 222.906 78.7825 222.414 79.4211C221.922 80.0598 221.676 80.9739 221.676 82.1633Z" fill="white"/>
<path d="M232.419 77.303L232.472 78.4983C233.198 77.5842 234.148 77.1272 235.32 77.1272C237.329 77.1272 238.343 78.261 238.361 80.5286V86.8127H236.735V80.5198C236.729 79.8342 236.571 79.3274 236.26 78.9993C235.955 78.6711 235.478 78.5071 234.827 78.5071C234.3 78.5071 233.837 78.6477 233.439 78.929C233.04 79.2102 232.73 79.5793 232.507 80.0364V86.8127H230.881V77.303H232.419Z" fill="white"/>
<path d="M253.985 84.5715L255.814 77.303H257.44L254.671 86.8127H253.353L251.041 79.6057L248.791 86.8127H247.473L244.713 77.303H246.33L248.202 84.4221L250.417 77.303H251.727L253.985 84.5715Z" fill="white"/>
<path d="M261.011 86.8127H259.385V77.303H261.011V86.8127ZM259.254 74.7805C259.254 74.5168 259.333 74.2942 259.491 74.1125C259.655 73.9309 259.895 73.8401 260.212 73.8401C260.528 73.8401 260.768 73.9309 260.932 74.1125C261.096 74.2942 261.178 74.5168 261.178 74.7805C261.178 75.0442 261.096 75.2639 260.932 75.4397C260.768 75.6155 260.528 75.7034 260.212 75.7034C259.895 75.7034 259.655 75.6155 259.491 75.4397C259.333 75.2639 259.254 75.0442 259.254 74.7805Z" fill="white"/>
<path d="M265.972 75.0002V77.303H267.747V78.5598H265.972V84.4573C265.972 84.8381 266.051 85.1252 266.209 85.3186C266.367 85.5061 266.637 85.5999 267.018 85.5999C267.205 85.5999 267.463 85.5647 267.791 85.4944V86.8127C267.363 86.9299 266.947 86.9885 266.543 86.9885C265.816 86.9885 265.269 86.7688 264.899 86.3293C264.53 85.8899 264.346 85.2659 264.346 84.4573V78.5598H262.614V77.303H264.346V75.0002H265.972Z" fill="white"/>
<path d="M271.424 78.4543C272.145 77.5696 273.083 77.1272 274.237 77.1272C276.247 77.1272 277.26 78.261 277.278 80.5286V86.8127H275.652V80.5198C275.646 79.8342 275.488 79.3274 275.177 78.9993C274.873 78.6711 274.395 78.5071 273.745 78.5071C273.217 78.5071 272.754 78.6477 272.356 78.929C271.958 79.2102 271.647 79.5793 271.424 80.0364V86.8127H269.798V73.3127H271.424V78.4543Z" fill="white"/>
<path d="M286.671 75.0002V77.303H288.447V78.5598H286.671V84.4573C286.671 84.8381 286.75 85.1252 286.909 85.3186C287.067 85.5061 287.336 85.5999 287.717 85.5999C287.905 85.5999 288.163 85.5647 288.491 85.4944V86.8127C288.063 86.9299 287.647 86.9885 287.243 86.9885C286.516 86.9885 285.968 86.7688 285.599 86.3293C285.23 85.8899 285.045 85.2659 285.045 84.4573V78.5598H283.314V77.303H285.045V75.0002H286.671Z" fill="white"/>
<path d="M294.444 86.9885C293.155 86.9885 292.106 86.5667 291.298 85.7229C290.489 84.8733 290.085 83.7395 290.085 82.3215V82.0227C290.085 81.0793 290.264 80.2385 290.621 79.5002C290.984 78.7561 291.488 78.176 292.133 77.76C292.783 77.3381 293.486 77.1272 294.242 77.1272C295.478 77.1272 296.439 77.5344 297.125 78.3489C297.81 79.1633 298.153 80.3293 298.153 81.8469V82.5237H291.711C291.734 83.4612 292.007 84.22 292.528 84.8C293.056 85.3743 293.724 85.6614 294.532 85.6614C295.106 85.6614 295.593 85.5442 295.991 85.3098C296.39 85.0754 296.738 84.7649 297.037 84.3782L298.03 85.1516C297.233 86.3762 296.038 86.9885 294.444 86.9885ZM294.242 78.4631C293.586 78.4631 293.035 78.7034 292.59 79.1838C292.144 79.6584 291.869 80.3264 291.764 81.1877H296.527V81.0647C296.48 80.2385 296.258 79.5999 295.859 79.1487C295.461 78.6917 294.922 78.4631 294.242 78.4631Z" fill="white"/>
<path d="M304.001 85.6614C304.581 85.6614 305.088 85.4856 305.522 85.134C305.955 84.7825 306.196 84.343 306.243 83.8157H307.781C307.751 84.3606 307.564 84.8792 307.218 85.3713C306.872 85.8635 306.41 86.2561 305.829 86.5491C305.255 86.842 304.646 86.9885 304.001 86.9885C302.706 86.9885 301.675 86.5579 300.908 85.6965C300.146 84.8293 299.765 83.6458 299.765 82.1458V81.8733C299.765 80.9475 299.935 80.1243 300.275 79.4036C300.615 78.6829 301.101 78.1233 301.734 77.7249C302.372 77.3264 303.125 77.1272 303.993 77.1272C305.059 77.1272 305.944 77.4465 306.647 78.0852C307.356 78.7239 307.734 79.553 307.781 80.5725H306.243C306.196 79.9573 305.961 79.4534 305.539 79.0608C305.123 78.6624 304.608 78.4631 303.993 78.4631C303.166 78.4631 302.525 78.762 302.068 79.3596C301.617 79.9514 301.391 80.8098 301.391 81.9348V82.2424C301.391 83.3381 301.617 84.1819 302.068 84.7737C302.519 85.3655 303.163 85.6614 304.001 85.6614Z" fill="white"/>
<path d="M311.379 78.4543C312.099 77.5696 313.037 77.1272 314.191 77.1272C316.201 77.1272 317.215 78.261 317.232 80.5286V86.8127H315.606V80.5198C315.6 79.8342 315.442 79.3274 315.132 78.9993C314.827 78.6711 314.349 78.5071 313.699 78.5071C313.172 78.5071 312.709 78.6477 312.31 78.929C311.912 79.2102 311.601 79.5793 311.379 80.0364V86.8127H309.753V73.3127H311.379V78.4543Z" fill="white"/>
<path d="M330.291 86.8127C330.197 86.6252 330.121 86.2913 330.062 85.8108C329.306 86.5959 328.404 86.9885 327.355 86.9885C326.418 86.9885 325.647 86.7249 325.044 86.1975C324.446 85.6643 324.147 84.9905 324.147 84.176C324.147 83.1858 324.522 82.4182 325.272 81.8733C326.028 81.3225 327.089 81.0471 328.454 81.0471H330.036V80.3C330.036 79.7317 329.866 79.2805 329.526 78.9465C329.186 78.6067 328.685 78.4368 328.023 78.4368C327.443 78.4368 326.957 78.5833 326.564 78.8762C326.172 79.1692 325.975 79.5237 325.975 79.9397H324.341C324.341 79.4651 324.508 79.0081 324.841 78.5686C325.181 78.1233 325.638 77.7717 326.213 77.5139C326.793 77.2561 327.428 77.1272 328.12 77.1272C329.216 77.1272 330.074 77.4026 330.695 77.9534C331.316 78.4983 331.638 79.2512 331.662 80.2122V84.5891C331.662 85.4622 331.773 86.1565 331.996 86.6721V86.8127H330.291ZM327.592 85.5735C328.102 85.5735 328.586 85.4417 329.043 85.178C329.5 84.9143 329.831 84.5715 330.036 84.1497V82.1985H328.761C326.769 82.1985 325.773 82.7815 325.773 83.9475C325.773 84.4573 325.943 84.8557 326.283 85.1428C326.623 85.4299 327.059 85.5735 327.592 85.5735Z" fill="white"/>
<path d="M335.893 77.303L335.945 78.4983C336.672 77.5842 337.621 77.1272 338.793 77.1272C340.803 77.1272 341.817 78.261 341.834 80.5286V86.8127H340.208V80.5198C340.202 79.8342 340.044 79.3274 339.734 78.9993C339.429 78.6711 338.951 78.5071 338.301 78.5071C337.774 78.5071 337.311 78.6477 336.912 78.929C336.514 79.2102 336.203 79.5793 335.981 80.0364V86.8127H334.355V77.303H335.893Z" fill="white"/>
<path d="M344.035 81.9788C344.035 80.5198 344.38 79.3479 345.072 78.4631C345.763 77.5725 346.669 77.1272 347.788 77.1272C348.901 77.1272 349.783 77.5081 350.433 78.2698V73.3127H352.059V86.8127H350.565L350.486 85.7932C349.836 86.5901 348.93 86.9885 347.77 86.9885C346.669 86.9885 345.769 86.5374 345.072 85.635C344.38 84.7327 344.035 83.5549 344.035 82.1018V81.9788ZM345.661 82.1633C345.661 83.2415 345.883 84.0852 346.329 84.6946C346.774 85.304 347.389 85.6086 348.174 85.6086C349.206 85.6086 349.959 85.1458 350.433 84.22V79.8518C349.947 78.9553 349.2 78.5071 348.192 78.5071C347.395 78.5071 346.774 78.8147 346.329 79.4299C345.883 80.0452 345.661 80.9563 345.661 82.1633Z" fill="white"/>
<path d="M367.394 82.1633C367.394 83.6165 367.06 84.7854 366.392 85.6702C365.724 86.5491 364.828 86.9885 363.703 86.9885C362.501 86.9885 361.573 86.5637 360.917 85.7141L360.837 86.8127H359.343V73.3127H360.969V78.3489C361.626 77.5344 362.531 77.1272 363.685 77.1272C364.839 77.1272 365.745 77.5637 366.401 78.4368C367.063 79.3098 367.394 80.5051 367.394 82.0227V82.1633ZM365.768 81.9788C365.768 80.8713 365.554 80.0159 365.126 79.4124C364.699 78.8088 364.084 78.5071 363.281 78.5071C362.209 78.5071 361.438 79.0051 360.969 80.0012V84.1145C361.467 85.1106 362.244 85.6086 363.298 85.6086C364.078 85.6086 364.684 85.3069 365.118 84.7034C365.551 84.0999 365.768 83.1917 365.768 81.9788Z" fill="white"/>
<path d="M373.541 86.9885C372.252 86.9885 371.203 86.5667 370.395 85.7229C369.586 84.8733 369.182 83.7395 369.182 82.3215V82.0227C369.182 81.0793 369.36 80.2385 369.718 79.5002C370.081 78.7561 370.585 78.176 371.229 77.76C371.88 77.3381 372.583 77.1272 373.339 77.1272C374.575 77.1272 375.536 77.5344 376.222 78.3489C376.907 79.1633 377.25 80.3293 377.25 81.8469V82.5237H370.808C370.831 83.4612 371.103 84.22 371.625 84.8C372.152 85.3743 372.82 85.6614 373.629 85.6614C374.203 85.6614 374.689 85.5442 375.088 85.3098C375.486 85.0754 375.835 84.7649 376.134 84.3782L377.127 85.1516C376.33 86.3762 375.135 86.9885 373.541 86.9885ZM373.339 78.4631C372.683 78.4631 372.132 78.7034 371.686 79.1838C371.241 79.6584 370.966 80.3264 370.86 81.1877H375.624V81.0647C375.577 80.2385 375.354 79.5999 374.956 79.1487C374.558 78.6917 374.019 78.4631 373.339 78.4631Z" fill="white"/>
<path d="M389.764 86.8127C389.67 86.6252 389.594 86.2913 389.535 85.8108C388.779 86.5959 387.877 86.9885 386.828 86.9885C385.891 86.9885 385.12 86.7249 384.516 86.1975C383.919 85.6643 383.62 84.9905 383.62 84.176C383.62 83.1858 383.995 82.4182 384.745 81.8733C385.501 81.3225 386.561 81.0471 387.927 81.0471H389.509V80.3C389.509 79.7317 389.339 79.2805 388.999 78.9465C388.659 78.6067 388.158 78.4368 387.496 78.4368C386.916 78.4368 386.43 78.5833 386.037 78.8762C385.644 79.1692 385.448 79.5237 385.448 79.9397H383.813C383.813 79.4651 383.98 79.0081 384.314 78.5686C384.654 78.1233 385.111 77.7717 385.685 77.5139C386.266 77.2561 386.901 77.1272 387.593 77.1272C388.688 77.1272 389.547 77.4026 390.168 77.9534C390.789 78.4983 391.111 79.2512 391.135 80.2122V84.5891C391.135 85.4622 391.246 86.1565 391.469 86.6721V86.8127H389.764ZM387.065 85.5735C387.575 85.5735 388.058 85.4417 388.516 85.178C388.973 84.9143 389.304 84.5715 389.509 84.1497V82.1985H388.234C386.242 82.1985 385.246 82.7815 385.246 83.9475C385.246 84.4573 385.416 84.8557 385.756 85.1428C386.096 85.4299 386.532 85.5735 387.065 85.5735Z" fill="white"/>
<path d="M395.366 77.303L395.418 78.4983C396.145 77.5842 397.094 77.1272 398.266 77.1272C400.276 77.1272 401.289 78.261 401.307 80.5286V86.8127H399.681V80.5198C399.675 79.8342 399.517 79.3274 399.206 78.9993C398.902 78.6711 398.424 78.5071 397.774 78.5071C397.246 78.5071 396.784 78.6477 396.385 78.929C395.987 79.2102 395.676 79.5793 395.453 80.0364V86.8127H393.827V77.303H395.366Z" fill="white"/>
<path d="M410.279 86.8127H408.653V77.303H410.279V86.8127ZM408.521 74.7805C408.521 74.5168 408.6 74.2942 408.758 74.1125C408.922 73.9309 409.162 73.8401 409.479 73.8401C409.795 73.8401 410.035 73.9309 410.199 74.1125C410.364 74.2942 410.446 74.5168 410.446 74.7805C410.446 75.0442 410.364 75.2639 410.199 75.4397C410.035 75.6155 409.795 75.7034 409.479 75.7034C409.162 75.7034 408.922 75.6155 408.758 75.4397C408.6 75.2639 408.521 75.0442 408.521 74.7805Z" fill="white"/>
<path d="M414.571 77.303L414.624 78.4983C415.35 77.5842 416.3 77.1272 417.471 77.1272C419.481 77.1272 420.495 78.261 420.512 80.5286V86.8127H418.886V80.5198C418.881 79.8342 418.722 79.3274 418.412 78.9993C418.107 78.6711 417.63 78.5071 416.979 78.5071C416.452 78.5071 415.989 78.6477 415.591 78.929C415.192 79.2102 414.882 79.5793 414.659 80.0364V86.8127H413.033V77.303H414.571Z" fill="white"/>
<path d="M422.713 81.9788C422.713 80.5198 423.059 79.3479 423.75 78.4631C424.442 77.5725 425.347 77.1272 426.466 77.1272C427.579 77.1272 428.461 77.5081 429.111 78.2698V73.3127H430.737V86.8127H429.243L429.164 85.7932C428.514 86.5901 427.609 86.9885 426.448 86.9885C425.347 86.9885 424.447 86.5374 423.75 85.635C423.059 84.7327 422.713 83.5549 422.713 82.1018V81.9788ZM424.339 82.1633C424.339 83.2415 424.562 84.0852 425.007 84.6946C425.452 85.304 426.068 85.6086 426.853 85.6086C427.884 85.6086 428.637 85.1458 429.111 84.22V79.8518C428.625 78.9553 427.878 78.5071 426.87 78.5071C426.073 78.5071 425.452 78.8147 425.007 79.4299C424.562 80.0452 424.339 80.9563 424.339 82.1633Z" fill="white"/>
<path d="M437.359 86.9885C436.07 86.9885 435.021 86.5667 434.213 85.7229C433.404 84.8733 433 83.7395 433 82.3215V82.0227C433 81.0793 433.178 80.2385 433.536 79.5002C433.899 78.7561 434.403 78.176 435.047 77.76C435.698 77.3381 436.401 77.1272 437.157 77.1272C438.393 77.1272 439.354 77.5344 440.04 78.3489C440.725 79.1633 441.068 80.3293 441.068 81.8469V82.5237H434.626C434.649 83.4612 434.922 84.22 435.443 84.8C435.97 85.3743 436.638 85.6614 437.447 85.6614C438.021 85.6614 438.507 85.5442 438.906 85.3098C439.304 85.0754 439.653 84.7649 439.952 84.3782L440.945 85.1516C440.148 86.3762 438.953 86.9885 437.359 86.9885ZM437.157 78.4631C436.501 78.4631 435.95 78.7034 435.505 79.1838C435.059 79.6584 434.784 80.3264 434.678 81.1877H439.442V81.0647C439.395 80.2385 439.172 79.5999 438.774 79.1487C438.376 78.6917 437.837 78.4631 437.157 78.4631Z" fill="white"/>
<path d="M451.135 82.1633C451.135 83.6106 450.804 84.7766 450.142 85.6614C449.48 86.5461 448.583 86.9885 447.452 86.9885C446.298 86.9885 445.39 86.6223 444.728 85.8899V90.469H443.102V77.303H444.587L444.666 78.3577C445.328 77.5374 446.248 77.1272 447.426 77.1272C448.568 77.1272 449.471 77.5579 450.133 78.4192C450.801 79.2805 451.135 80.4788 451.135 82.0139V82.1633ZM449.509 81.9788C449.509 80.9065 449.28 80.0598 448.823 79.4387C448.366 78.8176 447.739 78.5071 446.942 78.5071C445.958 78.5071 445.22 78.9436 444.728 79.8167V84.3606C445.214 85.2278 445.958 85.6614 446.96 85.6614C447.739 85.6614 448.358 85.3538 448.815 84.7385C449.277 84.1174 449.509 83.1975 449.509 81.9788Z" fill="white"/>
<path d="M457.299 86.9885C456.01 86.9885 454.961 86.5667 454.153 85.7229C453.344 84.8733 452.94 83.7395 452.94 82.3215V82.0227C452.94 81.0793 453.119 80.2385 453.476 79.5002C453.839 78.7561 454.343 78.176 454.988 77.76C455.638 77.3381 456.341 77.1272 457.097 77.1272C458.334 77.1272 459.294 77.5344 459.98 78.3489C460.666 79.1633 461.008 80.3293 461.008 81.8469V82.5237H454.566C454.589 83.4612 454.862 84.22 455.383 84.8C455.911 85.3743 456.579 85.6614 457.387 85.6614C457.961 85.6614 458.448 85.5442 458.846 85.3098C459.245 85.0754 459.593 84.7649 459.892 84.3782L460.885 85.1516C460.088 86.3762 458.893 86.9885 457.299 86.9885ZM457.097 78.4631C456.441 78.4631 455.89 78.7034 455.445 79.1838C455 79.6584 454.724 80.3264 454.619 81.1877H459.382V81.0647C459.335 80.2385 459.113 79.5999 458.714 79.1487C458.316 78.6917 457.777 78.4631 457.097 78.4631Z" fill="white"/>
<path d="M464.58 77.303L464.633 78.4983C465.359 77.5842 466.309 77.1272 467.48 77.1272C469.49 77.1272 470.504 78.261 470.521 80.5286V86.8127H468.896V80.5198C468.89 79.8342 468.731 79.3274 468.421 78.9993C468.116 78.6711 467.639 78.5071 466.988 78.5071C466.461 78.5071 465.998 78.6477 465.6 78.929C465.201 79.2102 464.891 79.5793 464.668 80.0364V86.8127H463.042V77.303H464.58Z" fill="white"/>
<path d="M472.722 81.9788C472.722 80.5198 473.068 79.3479 473.759 78.4631C474.451 77.5725 475.356 77.1272 476.475 77.1272C477.588 77.1272 478.47 77.5081 479.121 78.2698V73.3127H480.747V86.8127H479.252L479.173 85.7932C478.523 86.5901 477.618 86.9885 476.457 86.9885C475.356 86.9885 474.456 86.5374 473.759 85.635C473.068 84.7327 472.722 83.5549 472.722 82.1018V81.9788ZM474.348 82.1633C474.348 83.2415 474.571 84.0852 475.016 84.6946C475.461 85.304 476.077 85.6086 476.862 85.6086C477.893 85.6086 478.646 85.1458 479.121 84.22V79.8518C478.634 78.9553 477.887 78.5071 476.879 78.5071C476.082 78.5071 475.461 78.8147 475.016 79.4299C474.571 80.0452 474.348 80.9563 474.348 82.1633Z" fill="white"/>
<path d="M487.368 86.9885C486.079 86.9885 485.03 86.5667 484.222 85.7229C483.413 84.8733 483.009 83.7395 483.009 82.3215V82.0227C483.009 81.0793 483.187 80.2385 483.545 79.5002C483.908 78.7561 484.412 78.176 485.057 77.76C485.707 77.3381 486.41 77.1272 487.166 77.1272C488.402 77.1272 489.363 77.5344 490.049 78.3489C490.734 79.1633 491.077 80.3293 491.077 81.8469V82.5237H484.635C484.658 83.4612 484.931 84.22 485.452 84.8C485.979 85.3743 486.647 85.6614 487.456 85.6614C488.03 85.6614 488.517 85.5442 488.915 85.3098C489.313 85.0754 489.662 84.7649 489.961 84.3782L490.954 85.1516C490.157 86.3762 488.962 86.9885 487.368 86.9885ZM487.166 78.4631C486.51 78.4631 485.959 78.7034 485.514 79.1838C485.068 79.6584 484.793 80.3264 484.687 81.1877H489.451V81.0647C489.404 80.2385 489.182 79.5999 488.783 79.1487C488.385 78.6917 487.846 78.4631 487.166 78.4631Z" fill="white"/>
<path d="M494.649 77.303L494.702 78.4983C495.428 77.5842 496.377 77.1272 497.549 77.1272C499.559 77.1272 500.573 78.261 500.59 80.5286V86.8127H498.964V80.5198C498.958 79.8342 498.8 79.3274 498.49 78.9993C498.185 78.6711 497.707 78.5071 497.057 78.5071C496.53 78.5071 496.067 78.6477 495.668 78.929C495.27 79.2102 494.959 79.5793 494.737 80.0364V86.8127H493.111V77.303H494.649Z" fill="white"/>
<path d="M505.392 75.0002V77.303H507.168V78.5598H505.392V84.4573C505.392 84.8381 505.471 85.1252 505.63 85.3186C505.788 85.5061 506.057 85.5999 506.438 85.5999C506.626 85.5999 506.884 85.5647 507.212 85.4944V86.8127C506.784 86.9299 506.368 86.9885 505.964 86.9885C505.237 86.9885 504.689 86.7688 504.32 86.3293C503.951 85.8899 503.766 85.2659 503.766 84.4573V78.5598H502.035V77.303H503.766V75.0002H505.392Z" fill="white"/>
<path d="M515.594 86.8127H513.969V73.3127H515.594V86.8127Z" fill="white"/>
<path d="M522.295 86.9885C521.006 86.9885 519.957 86.5667 519.149 85.7229C518.34 84.8733 517.936 83.7395 517.936 82.3215V82.0227C517.936 81.0793 518.115 80.2385 518.472 79.5002C518.835 78.7561 519.339 78.176 519.984 77.76C520.634 77.3381 521.337 77.1272 522.093 77.1272C523.329 77.1272 524.29 77.5344 524.976 78.3489C525.661 79.1633 526.004 80.3293 526.004 81.8469V82.5237H519.562C519.585 83.4612 519.858 84.22 520.379 84.8C520.906 85.3743 521.574 85.6614 522.383 85.6614C522.957 85.6614 523.444 85.5442 523.842 85.3098C524.24 85.0754 524.589 84.7649 524.888 84.3782L525.881 85.1516C525.084 86.3762 523.889 86.9885 522.295 86.9885ZM522.093 78.4631C521.437 78.4631 520.886 78.7034 520.441 79.1838C519.995 79.6584 519.72 80.3264 519.615 81.1877H524.378V81.0647C524.331 80.2385 524.109 79.5999 523.71 79.1487C523.312 78.6917 522.773 78.4631 522.093 78.4631Z" fill="white"/>
<path d="M533.909 86.8127C533.815 86.6252 533.739 86.2913 533.68 85.8108C532.924 86.5959 532.022 86.9885 530.973 86.9885C530.036 86.9885 529.265 86.7249 528.662 86.1975C528.064 85.6643 527.765 84.9905 527.765 84.176C527.765 83.1858 528.14 82.4182 528.89 81.8733C529.646 81.3225 530.707 81.0471 532.072 81.0471H533.654V80.3C533.654 79.7317 533.484 79.2805 533.144 78.9465C532.804 78.6067 532.303 78.4368 531.641 78.4368C531.061 78.4368 530.575 78.5833 530.182 78.8762C529.79 79.1692 529.593 79.5237 529.593 79.9397H527.959C527.959 79.4651 528.126 79.0081 528.46 78.5686C528.799 78.1233 529.256 77.7717 529.831 77.5139C530.411 77.2561 531.047 77.1272 531.738 77.1272C532.834 77.1272 533.692 77.4026 534.313 77.9534C534.934 78.4983 535.256 79.2512 535.28 80.2122V84.5891C535.28 85.4622 535.391 86.1565 535.614 86.6721V86.8127H533.909ZM531.211 85.5735C531.72 85.5735 532.204 85.4417 532.661 85.178C533.118 84.9143 533.449 84.5715 533.654 84.1497V82.1985H532.38C530.387 82.1985 529.391 82.7815 529.391 83.9475C529.391 84.4573 529.561 84.8557 529.901 85.1428C530.241 85.4299 530.677 85.5735 531.211 85.5735Z" fill="white"/>
<path d="M542.569 78.762C542.323 78.7209 542.057 78.7004 541.77 78.7004C540.703 78.7004 539.98 79.1545 539.599 80.0627V86.8127H537.973V77.303H539.555L539.581 78.4016C540.114 77.552 540.87 77.1272 541.849 77.1272C542.165 77.1272 542.405 77.1682 542.569 77.2502V78.762Z" fill="white"/>
<path d="M545.755 77.303L545.807 78.4983C546.534 77.5842 547.483 77.1272 548.655 77.1272C550.665 77.1272 551.678 78.261 551.696 80.5286V86.8127H550.07V80.5198C550.064 79.8342 549.906 79.3274 549.595 78.9993C549.291 78.6711 548.813 78.5071 548.163 78.5071C547.635 78.5071 547.172 78.6477 546.774 78.929C546.376 79.2102 546.065 79.5793 545.842 80.0364V86.8127H544.216V77.303H545.755Z" fill="white"/>
<path d="M558.238 86.9885C556.949 86.9885 555.9 86.5667 555.092 85.7229C554.283 84.8733 553.879 83.7395 553.879 82.3215V82.0227C553.879 81.0793 554.058 80.2385 554.415 79.5002C554.778 78.7561 555.282 78.176 555.927 77.76C556.577 77.3381 557.28 77.1272 558.036 77.1272C559.272 77.1272 560.233 77.5344 560.919 78.3489C561.604 79.1633 561.947 80.3293 561.947 81.8469V82.5237H555.505C555.528 83.4612 555.801 84.22 556.322 84.8C556.85 85.3743 557.518 85.6614 558.326 85.6614C558.9 85.6614 559.387 85.5442 559.785 85.3098C560.184 85.0754 560.532 84.7649 560.831 84.3782L561.824 85.1516C561.027 86.3762 559.832 86.9885 558.238 86.9885ZM558.036 78.4631C557.38 78.4631 556.829 78.7034 556.384 79.1838C555.938 79.6584 555.663 80.3264 555.558 81.1877H560.321V81.0647C560.274 80.2385 560.052 79.5999 559.653 79.1487C559.255 78.6917 558.716 78.4631 558.036 78.4631Z" fill="white"/>
<path d="M568.578 78.762C568.332 78.7209 568.065 78.7004 567.778 78.7004C566.711 78.7004 565.988 79.1545 565.607 80.0627V86.8127H563.981V77.303H565.563L565.589 78.4016C566.123 77.552 566.878 77.1272 567.857 77.1272C568.173 77.1272 568.414 77.1682 568.578 77.2502V78.762Z" fill="white"/>
<path d="M43.6035 37.2356C43.2161 42.5904 41.2337 46.8059 37.6562 49.8821C34.1016 52.9583 29.4076 54.4963 23.5742 54.4963C17.194 54.4963 12.1696 52.3544 8.50098 48.0706C4.85514 43.7639 3.03223 37.8622 3.03223 30.3655V27.3235C3.03223 22.5383 3.87533 18.3228 5.56152 14.677C7.24772 11.0312 9.65169 8.23983 12.7734 6.30298C15.918 4.34334 19.5638 3.36353 23.7109 3.36353C29.4531 3.36353 34.0788 4.90161 37.5879 7.97778C41.097 11.054 43.125 15.372 43.6719 20.9319H33.418C33.1673 17.719 32.2673 15.3948 30.7178 13.9592C29.1911 12.5009 26.8555 11.7717 23.7109 11.7717C20.293 11.7717 17.7295 13.0022 16.0205 15.4631C14.3343 17.9013 13.4684 21.6952 13.4229 26.845V30.6047C13.4229 35.9823 14.2318 39.913 15.8496 42.3967C17.4902 44.8805 20.0651 46.1223 23.5742 46.1223C26.7415 46.1223 29.0999 45.4045 30.6494 43.969C32.2217 42.5107 33.1217 40.2662 33.3496 37.2356H43.6035Z" fill="white"/>
<path d="M67.1123 53.8127H57.2002V1.31274H67.1123V53.8127Z" fill="white"/>
<path d="M103.712 53.8127C103.256 52.9241 102.926 51.8189 102.721 50.4973C100.328 53.1633 97.2178 54.4963 93.3896 54.4963C89.7666 54.4963 86.7588 53.4482 84.3662 51.3518C81.9964 49.2555 80.8115 46.6122 80.8115 43.4221C80.8115 39.5028 82.2585 36.495 85.1523 34.3987C88.069 32.3023 92.2731 31.2428 97.7646 31.22H102.311V29.1008C102.311 27.3918 101.866 26.0247 100.978 24.9993C100.112 23.9739 98.7331 23.4612 96.8418 23.4612C95.1784 23.4612 93.8682 23.8599 92.9111 24.6575C91.9769 25.455 91.5098 26.5487 91.5098 27.9387H81.6318C81.6318 25.7968 82.2926 23.8144 83.6143 21.9915C84.9359 20.1685 86.8044 18.7444 89.2197 17.719C91.6351 16.6708 94.3467 16.1467 97.3545 16.1467C101.912 16.1467 105.523 17.2974 108.189 19.5989C110.878 21.8775 112.223 25.0904 112.223 29.2375V45.2678C112.245 48.7769 112.735 51.4316 113.692 53.2317V53.8127H103.712ZM95.543 46.9426C97.0013 46.9426 98.3457 46.6236 99.5762 45.9856C100.807 45.3248 101.718 44.4475 102.311 43.3538V36.9963H98.6191C93.6745 36.9963 91.0426 38.7053 90.7236 42.1233L90.6895 42.7043C90.6895 43.9348 91.1224 44.9488 91.9883 45.7463C92.8542 46.5439 94.0391 46.9426 95.543 46.9426Z" fill="white"/>
<path d="M146.84 43.593C146.84 42.3853 146.236 41.4397 145.028 40.7561C143.843 40.0497 141.929 39.4231 139.286 38.8762C130.491 37.0305 126.093 33.2935 126.093 27.6653C126.093 24.384 127.449 21.6497 130.16 19.4622C132.895 17.2519 136.461 16.1467 140.858 16.1467C145.552 16.1467 149.301 17.2519 152.104 19.4622C154.929 21.6724 156.342 24.5435 156.342 28.0754H146.464C146.464 26.6627 146.008 25.5006 145.097 24.5891C144.185 23.6549 142.761 23.1877 140.824 23.1877C139.161 23.1877 137.873 23.5637 136.962 24.3157C136.05 25.0676 135.595 26.0247 135.595 27.1868C135.595 28.2805 136.107 29.1692 137.133 29.8528C138.181 30.5136 139.936 31.0946 142.396 31.5959C144.857 32.0745 146.931 32.6213 148.617 33.2366C153.835 35.1506 156.444 38.4661 156.444 43.1829C156.444 46.5553 154.997 49.2896 152.104 51.386C149.21 53.4596 145.473 54.4963 140.893 54.4963C137.794 54.4963 135.036 53.9495 132.621 52.8557C130.229 51.7392 128.349 50.2239 126.981 48.3098C125.614 46.373 124.931 44.288 124.931 42.0549H134.296C134.387 43.8095 135.036 45.1539 136.244 46.0881C137.452 47.0224 139.07 47.4895 141.098 47.4895C142.989 47.4895 144.413 47.1363 145.37 46.4299C146.35 45.7008 146.84 44.7551 146.84 43.593Z" fill="white"/>
<path d="M189.865 43.593C189.865 42.3853 189.261 41.4397 188.054 40.7561C186.869 40.0497 184.955 39.4231 182.312 38.8762C173.516 37.0305 169.118 33.2935 169.118 27.6653C169.118 24.384 170.474 21.6497 173.186 19.4622C175.92 17.2519 179.486 16.1467 183.884 16.1467C188.578 16.1467 192.326 17.2519 195.129 19.4622C197.954 21.6724 199.367 24.5435 199.367 28.0754H189.489C189.489 26.6627 189.034 25.5006 188.122 24.5891C187.211 23.6549 185.786 23.1877 183.85 23.1877C182.186 23.1877 180.899 23.5637 179.987 24.3157C179.076 25.0676 178.62 26.0247 178.62 27.1868C178.62 28.2805 179.133 29.1692 180.158 29.8528C181.206 30.5136 182.961 31.0946 185.422 31.5959C187.883 32.0745 189.956 32.6213 191.643 33.2366C196.861 35.1506 199.47 38.4661 199.47 43.1829C199.47 46.5553 198.023 49.2896 195.129 51.386C192.235 53.4596 188.498 54.4963 183.918 54.4963C180.819 54.4963 178.062 53.9495 175.646 52.8557C173.254 51.7392 171.374 50.2239 170.007 48.3098C168.64 46.373 167.956 44.288 167.956 42.0549H177.321C177.412 43.8095 178.062 45.1539 179.27 46.0881C180.477 47.0224 182.095 47.4895 184.123 47.4895C186.014 47.4895 187.438 47.1363 188.396 46.4299C189.375 45.7008 189.865 44.7551 189.865 43.593Z" fill="white"/>
<path d="M250.972 12.3528H235.728V53.8127H225.474V12.3528H210.435V4.04712H250.972V12.3528Z" fill="white"/>
<path d="M277.146 54.4963C271.723 54.4963 267.303 52.8329 263.885 49.5061C260.49 46.1793 258.792 41.7473 258.792 36.2102V35.2532C258.792 31.539 259.51 28.2236 260.945 25.3069C262.381 22.3674 264.409 20.1116 267.029 18.5393C269.673 16.9443 272.68 16.1467 276.053 16.1467C281.111 16.1467 285.088 17.7418 287.981 20.9319C290.898 24.122 292.356 28.6451 292.356 34.5012V38.5344H268.807C269.126 40.9498 270.083 42.8866 271.678 44.345C273.296 45.8033 275.335 46.5325 277.796 46.5325C281.601 46.5325 284.575 45.1539 286.717 42.3967L291.57 47.8313C290.089 49.9277 288.084 51.5683 285.555 52.7532C283.025 53.9153 280.223 54.4963 277.146 54.4963ZM276.019 24.1448C274.059 24.1448 272.464 24.8056 271.233 26.1272C270.026 27.4488 269.251 29.3401 268.909 31.801H282.649V31.0149C282.604 28.8274 282.011 27.1412 280.872 25.9563C279.733 24.7486 278.115 24.1448 276.019 24.1448Z" fill="white"/>
<path d="M320.377 46.5325C322.2 46.5325 323.681 46.0312 324.82 45.0286C325.96 44.026 326.552 42.693 326.598 41.0295H335.86C335.838 43.5361 335.154 45.8375 333.81 47.9338C332.465 50.0074 330.619 51.6252 328.272 52.7874C325.948 53.9267 323.373 54.4963 320.548 54.4963C315.261 54.4963 311.091 52.8215 308.038 49.4719C304.985 46.0995 303.458 41.4511 303.458 35.5266V34.8772C303.458 29.1806 304.973 24.6347 308.004 21.2395C311.035 17.8443 315.193 16.1467 320.479 16.1467C325.105 16.1467 328.808 17.4683 331.588 20.1116C334.391 22.732 335.815 26.2297 335.86 30.6047H326.598C326.552 28.6907 325.96 27.1412 324.82 25.9563C323.681 24.7486 322.177 24.1448 320.309 24.1448C318.007 24.1448 316.264 24.9879 315.079 26.6741C313.917 28.3375 313.336 31.0491 313.336 34.8088V35.8342C313.336 39.6396 313.917 42.3739 315.079 44.0374C316.241 45.7008 318.007 46.5325 320.377 46.5325Z" fill="white"/>
<path d="M358.139 20.8635C360.759 17.719 364.052 16.1467 368.017 16.1467C376.037 16.1467 380.105 20.8066 380.219 30.1262V53.8127H370.341V30.3997C370.341 28.2805 369.885 26.7196 368.974 25.717C368.062 24.6917 366.547 24.179 364.428 24.179C361.534 24.179 359.438 25.2955 358.139 27.5286V53.8127H348.261V1.31274H358.139V20.8635Z" fill="white"/>
<defs>
<clipPath id="clip0">
<rect width="38.7879" height="33.9226" fill="white" transform="translate(514.133 11.3074)"/>
</clipPath>
</defs>
</svg>
